<svg width="536" height="278" viewBox="0 0 536 278" fill="none" xmlns="http://www.w3.org/2000/svg">
<path d="M112.903 262.739V266.575H117.957V267.743H112.903V271.813H118.641V273.114H111.452V261.438H118.641V262.739H112.903ZM124.885 276.634C124.552 276.634 124.279 276.611 124.068 276.567C123.868 276.522 123.662 276.461 123.451 276.383V275.182C123.595 275.227 123.79 275.266 124.035 275.299C124.279 275.344 124.518 275.366 124.752 275.366C125.619 275.366 126.27 275.121 126.703 274.632C127.148 274.143 127.371 273.492 127.371 272.68V271.096H127.237C127.004 271.618 126.626 272.063 126.103 272.43C125.591 272.786 124.969 272.964 124.235 272.964C123.501 272.964 122.856 272.775 122.3 272.397C121.744 272.019 121.31 271.496 120.999 270.829C120.698 270.15 120.548 269.378 120.548 268.51C120.548 267.643 120.698 266.875 120.999 266.208C121.31 265.53 121.744 265.002 122.3 264.624C122.856 264.245 123.501 264.056 124.235 264.056C125.002 264.056 125.641 264.257 126.153 264.657C126.676 265.046 127.043 265.502 127.254 266.025H127.371V264.34H128.822V272.68C128.822 273.303 128.694 273.915 128.438 274.515C128.194 275.116 127.777 275.616 127.187 276.016C126.598 276.428 125.831 276.634 124.885 276.634ZM124.702 271.73C125.269 271.73 125.753 271.579 126.153 271.279C126.553 270.968 126.848 270.567 127.037 270.078C127.237 269.578 127.337 269.044 127.337 268.477C127.337 267.921 127.237 267.404 127.037 266.925C126.848 266.447 126.553 266.058 126.153 265.758C125.764 265.458 125.28 265.307 124.702 265.307C123.846 265.307 123.189 265.619 122.733 266.242C122.289 266.853 122.066 267.598 122.066 268.477C122.066 269.055 122.161 269.594 122.35 270.095C122.55 270.584 122.845 270.979 123.234 271.279C123.634 271.579 124.124 271.73 124.702 271.73ZM134.578 274.332C134.4 274.754 134.228 275.099 134.061 275.366C133.905 275.644 133.644 275.905 133.277 276.15C132.91 276.395 132.432 276.517 131.842 276.517C131.531 276.517 131.197 276.472 130.841 276.383V275.316C131.108 275.36 131.342 275.383 131.542 275.383C131.909 275.383 132.204 275.31 132.426 275.166C132.649 275.032 132.821 274.854 132.943 274.632C133.077 274.41 133.232 274.087 133.41 273.664L133.811 272.68L130.558 264.323H132.059L134.511 271.096H134.611L137.18 264.323H138.681L134.578 274.332ZM144.969 273.231C144.202 273.231 143.573 273.042 143.084 272.664C142.595 272.286 142.217 271.835 141.95 271.312H141.833V276.5H140.382V264.323H141.833V265.958H141.95C142.195 265.446 142.556 265.007 143.034 264.64C143.512 264.273 144.141 264.09 144.919 264.09C145.709 264.09 146.381 264.29 146.937 264.69C147.505 265.079 147.933 265.624 148.222 266.325C148.511 267.014 148.656 267.793 148.656 268.66C148.656 269.528 148.511 270.306 148.222 270.996C147.933 271.685 147.51 272.23 146.954 272.63C146.398 273.031 145.736 273.231 144.969 273.231ZM144.519 271.996C145.386 271.996 146.042 271.679 146.487 271.046C146.943 270.412 147.171 269.617 147.171 268.66C147.171 267.715 146.949 266.925 146.504 266.292C146.059 265.658 145.397 265.341 144.519 265.341C143.651 265.341 142.99 265.658 142.534 266.292C142.089 266.925 141.866 267.715 141.866 268.66C141.866 269.606 142.094 270.401 142.55 271.046C143.006 271.679 143.662 271.996 144.519 271.996ZM153.127 265.474V270.579C153.127 270.99 153.144 271.296 153.177 271.496C153.222 271.685 153.327 271.835 153.494 271.946C153.672 272.058 153.956 272.113 154.345 272.113C154.612 272.113 154.901 272.074 155.212 271.996V273.031C155.134 273.064 154.962 273.097 154.695 273.131C154.439 273.164 154.172 273.181 153.894 273.181C153.249 273.181 152.766 273.092 152.443 272.914C152.132 272.725 151.926 272.475 151.826 272.163C151.737 271.841 151.693 271.418 151.693 270.895V265.474H150.058V264.323H151.693V261.438H153.127V264.323H155.212V265.474H153.127ZM161.218 261.438H162.669V273.114H161.218V261.438ZM165.338 264.323H166.756V265.941H166.889C166.912 265.83 167.023 265.63 167.223 265.341C167.423 265.041 167.729 264.757 168.141 264.49C168.552 264.223 169.064 264.09 169.675 264.09C170.32 264.09 170.854 264.24 171.276 264.54C171.71 264.84 172.033 265.163 172.244 265.508C172.455 265.852 172.561 266.069 172.561 266.158H172.694C172.85 265.769 173.156 265.33 173.612 264.84C174.079 264.34 174.791 264.09 175.747 264.09C176.459 264.09 177.054 264.273 177.532 264.64C178.01 264.996 178.36 265.458 178.583 266.025C178.816 266.592 178.933 267.198 178.933 267.843V273.114H177.515V267.976C177.515 267.131 177.293 266.492 176.848 266.058C176.414 265.624 175.875 265.408 175.23 265.408C174.563 265.408 173.995 265.636 173.528 266.091C173.072 266.536 172.844 267.165 172.844 267.976V273.114H171.427V267.976C171.427 267.131 171.204 266.492 170.759 266.058C170.326 265.624 169.786 265.408 169.141 265.408C168.474 265.408 167.907 265.636 167.44 266.091C166.984 266.536 166.756 267.165 166.756 267.976V273.114H165.338V264.323ZM185.938 273.231C185.17 273.231 184.542 273.042 184.053 272.664C183.564 272.286 183.185 271.835 182.919 271.312H182.802V276.5H181.351V264.323H182.802V265.958H182.919C183.163 265.446 183.525 265.007 184.003 264.64C184.481 264.273 185.109 264.09 185.888 264.09C186.677 264.09 187.35 264.29 187.906 264.69C188.473 265.079 188.901 265.624 189.191 266.325C189.48 267.014 189.624 267.793 189.624 268.66C189.624 269.528 189.48 270.306 189.191 270.996C188.901 271.685 188.479 272.23 187.923 272.63C187.367 273.031 186.705 273.231 185.938 273.231ZM185.487 271.996C186.355 271.996 187.011 271.679 187.456 271.046C187.912 270.412 188.14 269.617 188.14 268.66C188.14 267.715 187.917 266.925 187.472 266.292C187.028 265.658 186.366 265.341 185.487 265.341C184.62 265.341 183.958 265.658 183.502 266.292C183.058 266.925 182.835 267.715 182.835 268.66C182.835 269.606 183.063 270.401 183.519 271.046C183.975 271.679 184.631 271.996 185.487 271.996ZM195.464 273.231C194.574 273.231 193.818 273.019 193.195 272.597C192.583 272.163 192.122 271.602 191.811 270.912C191.499 270.212 191.343 269.461 191.343 268.66C191.343 267.86 191.499 267.115 191.811 266.425C192.122 265.724 192.583 265.163 193.195 264.74C193.818 264.307 194.574 264.09 195.464 264.09C196.353 264.09 197.104 264.307 197.716 264.74C198.338 265.163 198.8 265.724 199.1 266.425C199.411 267.126 199.567 267.871 199.567 268.66C199.567 269.45 199.411 270.195 199.1 270.895C198.789 271.596 198.322 272.163 197.699 272.597C197.087 273.019 196.342 273.231 195.464 273.231ZM195.464 271.996C196.009 271.996 196.481 271.846 196.881 271.546C197.293 271.246 197.604 270.845 197.816 270.345C198.027 269.833 198.133 269.266 198.133 268.644C198.133 267.687 197.893 266.892 197.415 266.258C196.937 265.624 196.287 265.307 195.464 265.307C194.908 265.307 194.424 265.458 194.012 265.758C193.612 266.058 193.306 266.464 193.095 266.976C192.884 267.476 192.778 268.032 192.778 268.644C192.778 269.6 193.017 270.401 193.495 271.046C193.973 271.679 194.63 271.996 195.464 271.996ZM201.598 264.323H203.032V265.724H203.132C203.277 265.335 203.533 265.007 203.899 264.74C204.278 264.462 204.75 264.323 205.317 264.323C205.495 264.323 205.634 264.334 205.734 264.357C205.846 264.368 205.968 264.396 206.101 264.44L206.051 265.841C205.873 265.786 205.718 265.747 205.584 265.724C205.462 265.702 205.301 265.691 205.1 265.691C203.722 265.691 203.032 266.508 203.032 268.143V273.114H201.598V264.323ZM209.897 265.474V270.579C209.897 270.99 209.914 271.296 209.947 271.496C209.991 271.685 210.097 271.835 210.264 271.946C210.442 272.058 210.725 272.113 211.115 272.113C211.381 272.113 211.671 272.074 211.982 271.996V273.031C211.904 273.064 211.732 273.097 211.465 273.131C211.209 273.164 210.942 273.181 210.664 273.181C210.019 273.181 209.535 273.092 209.213 272.914C208.902 272.725 208.696 272.475 208.596 272.163C208.507 271.841 208.462 271.418 208.462 270.895V265.474H206.828V264.323H208.462V261.438H209.897V264.323H211.982V265.474H209.897Z" fill="#F7909A"/>
<path d="M89 269.17H104.754" stroke="#F7909A" stroke-width="2.78011"/>
<circle cx="96.8767" cy="269.17" r="4.17017" fill="#F7909A"/>
<path d="M258 269.5H275" stroke="#6FE2CC" stroke-width="3"/>
<circle cx="266.5" cy="269.5" r="4.5" fill="#6FE2CC"/>
<path d="M283.417 262.739V266.575H288.471V267.743H283.417V271.813H289.155V273.114H281.965V261.438H289.155V262.739H283.417ZM295.399 276.634C295.065 276.634 294.793 276.611 294.582 276.567C294.381 276.522 294.176 276.461 293.964 276.383V275.182C294.109 275.227 294.304 275.266 294.548 275.299C294.793 275.344 295.032 275.366 295.266 275.366C296.133 275.366 296.783 275.121 297.217 274.632C297.662 274.143 297.884 273.492 297.884 272.68V271.096H297.751C297.517 271.618 297.139 272.063 296.617 272.43C296.105 272.786 295.482 272.964 294.748 272.964C294.014 272.964 293.369 272.775 292.813 272.397C292.257 272.019 291.824 271.496 291.512 270.829C291.212 270.15 291.062 269.378 291.062 268.51C291.062 267.643 291.212 266.875 291.512 266.208C291.824 265.53 292.257 265.002 292.813 264.624C293.369 264.245 294.014 264.056 294.748 264.056C295.516 264.056 296.155 264.257 296.667 264.657C297.189 265.046 297.556 265.502 297.768 266.025H297.884V264.34H299.336V272.68C299.336 273.303 299.208 273.915 298.952 274.515C298.707 275.116 298.29 275.616 297.701 276.016C297.112 276.428 296.344 276.634 295.399 276.634ZM295.215 271.73C295.783 271.73 296.266 271.579 296.667 271.279C297.067 270.968 297.362 270.567 297.551 270.078C297.751 269.578 297.851 269.044 297.851 268.477C297.851 267.921 297.751 267.404 297.551 266.925C297.362 266.447 297.067 266.058 296.667 265.758C296.277 265.458 295.794 265.307 295.215 265.307C294.359 265.307 293.703 265.619 293.247 266.242C292.802 266.853 292.58 267.598 292.58 268.477C292.58 269.055 292.674 269.594 292.863 270.095C293.064 270.584 293.358 270.979 293.748 271.279C294.148 271.579 294.637 271.73 295.215 271.73ZM305.092 274.332C304.914 274.754 304.741 275.099 304.575 275.366C304.419 275.644 304.157 275.905 303.791 276.15C303.424 276.395 302.945 276.517 302.356 276.517C302.045 276.517 301.711 276.472 301.355 276.383V275.316C301.622 275.36 301.856 275.383 302.056 275.383C302.423 275.383 302.717 275.31 302.94 275.166C303.162 275.032 303.335 274.854 303.457 274.632C303.59 274.41 303.746 274.087 303.924 273.664L304.324 272.68L301.072 264.323H302.573L305.025 271.096H305.125L307.694 264.323H309.195L305.092 274.332ZM315.483 273.231C314.715 273.231 314.087 273.042 313.598 272.664C313.109 272.286 312.73 271.835 312.464 271.312H312.347V276.5H310.896V264.323H312.347V265.958H312.464C312.708 265.446 313.07 265.007 313.548 264.64C314.026 264.273 314.654 264.09 315.433 264.09C316.222 264.09 316.895 264.29 317.451 264.69C318.018 265.079 318.446 265.624 318.736 266.325C319.025 267.014 319.169 267.793 319.169 268.66C319.169 269.528 319.025 270.306 318.736 270.996C318.446 271.685 318.024 272.23 317.468 272.63C316.912 273.031 316.25 273.231 315.483 273.231ZM315.032 271.996C315.9 271.996 316.556 271.679 317.001 271.046C317.457 270.412 317.685 269.617 317.685 268.66C317.685 267.715 317.462 266.925 317.017 266.292C316.573 265.658 315.911 265.341 315.032 265.341C314.165 265.341 313.503 265.658 313.047 266.292C312.603 266.925 312.38 267.715 312.38 268.66C312.38 269.606 312.608 270.401 313.064 271.046C313.52 271.679 314.176 271.996 315.032 271.996ZM323.641 265.474V270.579C323.641 270.99 323.657 271.296 323.691 271.496C323.735 271.685 323.841 271.835 324.008 271.946C324.186 272.058 324.469 272.113 324.858 272.113C325.125 272.113 325.415 272.074 325.726 271.996V273.031C325.648 273.064 325.476 273.097 325.209 273.131C324.953 273.164 324.686 273.181 324.408 273.181C323.763 273.181 323.279 273.092 322.957 272.914C322.646 272.725 322.44 272.475 322.34 272.163C322.251 271.841 322.206 271.418 322.206 270.895V265.474H320.572V264.323H322.206V261.438H323.641V264.323H325.726V265.474H323.641ZM335.652 261.438C336.597 261.438 337.37 261.627 337.97 262.005C338.582 262.383 339.021 262.861 339.288 263.439C339.555 264.017 339.688 264.629 339.688 265.274C339.688 265.919 339.555 266.531 339.288 267.109C339.021 267.676 338.587 268.149 337.987 268.527C337.386 268.894 336.608 269.077 335.652 269.077H333.083V273.114H331.682V261.438H335.652ZM335.468 267.826C336.269 267.826 336.936 267.637 337.47 267.259C338.015 266.87 338.287 266.208 338.287 265.274C338.287 264.351 338.015 263.701 337.47 263.322C336.936 262.933 336.269 262.739 335.468 262.739H333.083V267.826H335.468ZM341.487 264.323H342.921V265.724H343.021C343.166 265.335 343.421 265.007 343.788 264.74C344.167 264.462 344.639 264.323 345.206 264.323C345.384 264.323 345.523 264.334 345.623 264.357C345.735 264.368 345.857 264.396 345.99 264.44L345.94 265.841C345.762 265.786 345.607 265.747 345.473 265.724C345.351 265.702 345.19 265.691 344.989 265.691C343.611 265.691 342.921 266.508 342.921 268.143V273.114H341.487V264.323ZM351.04 273.231C350.15 273.231 349.394 273.019 348.771 272.597C348.159 272.163 347.698 271.602 347.387 270.912C347.075 270.212 346.919 269.461 346.919 268.66C346.919 267.86 347.075 267.115 347.387 266.425C347.698 265.724 348.159 265.163 348.771 264.74C349.394 264.307 350.15 264.09 351.04 264.09C351.929 264.09 352.68 264.307 353.291 264.74C353.914 265.163 354.376 265.724 354.676 266.425C354.987 267.126 355.143 267.871 355.143 268.66C355.143 269.45 354.987 270.195 354.676 270.895C354.365 271.596 353.898 272.163 353.275 272.597C352.663 273.019 351.918 273.231 351.04 273.231ZM351.04 271.996C351.585 271.996 352.057 271.846 352.457 271.546C352.869 271.246 353.18 270.845 353.392 270.345C353.603 269.833 353.709 269.266 353.709 268.644C353.709 267.687 353.469 266.892 352.991 266.258C352.513 265.624 351.863 265.307 351.04 265.307C350.484 265.307 350 265.458 349.588 265.758C349.188 266.058 348.882 266.464 348.671 266.976C348.46 267.476 348.354 268.032 348.354 268.644C348.354 269.6 348.593 270.401 349.071 271.046C349.549 271.679 350.206 271.996 351.04 271.996ZM360.493 273.231C359.715 273.231 359.047 273.031 358.491 272.63C357.946 272.23 357.529 271.685 357.24 270.996C356.951 270.306 356.807 269.528 356.807 268.66C356.807 267.782 356.951 266.998 357.24 266.308C357.529 265.619 357.952 265.079 358.508 264.69C359.064 264.29 359.737 264.09 360.526 264.09C361.305 264.09 361.933 264.279 362.411 264.657C362.901 265.024 363.262 265.458 363.496 265.958H363.629V260.603H365.063V273.114H363.629V271.312H363.496C363.229 271.846 362.851 272.302 362.361 272.68C361.883 273.047 361.26 273.231 360.493 273.231ZM360.927 271.996C361.794 271.996 362.456 271.679 362.912 271.046C363.368 270.401 363.596 269.606 363.596 268.66C363.596 267.715 363.368 266.925 362.912 266.292C362.456 265.658 361.794 265.341 360.927 265.341C360.048 265.341 359.387 265.658 358.942 266.292C358.497 266.925 358.274 267.715 358.274 268.66C358.274 269.617 358.497 270.412 358.942 271.046C359.398 271.679 360.059 271.996 360.927 271.996ZM375.224 273.114H373.773V271.446H373.673C373.44 271.957 373.078 272.391 372.589 272.747C372.111 273.092 371.521 273.264 370.821 273.264C370.087 273.264 369.475 273.086 368.986 272.73C368.497 272.375 368.135 271.913 367.902 271.346C367.679 270.779 367.568 270.162 367.568 269.494V264.323H369.002V269.311C369.002 270.167 369.219 270.829 369.653 271.296C370.087 271.752 370.654 271.98 371.354 271.98C372.088 271.98 372.672 271.735 373.106 271.246C373.551 270.745 373.773 270.1 373.773 269.311V264.323H375.224V273.114ZM381.356 273.231C380.444 273.231 379.671 273.014 379.037 272.58C378.414 272.147 377.953 271.585 377.652 270.895C377.352 270.195 377.202 269.45 377.202 268.66C377.202 267.871 377.352 267.131 377.652 266.442C377.953 265.741 378.414 265.174 379.037 264.74C379.671 264.307 380.444 264.09 381.356 264.09C382.49 264.09 383.38 264.418 384.024 265.074C384.681 265.73 385.075 266.536 385.209 267.493H383.808C383.708 266.848 383.452 266.325 383.04 265.925C382.629 265.513 382.073 265.307 381.372 265.307C380.483 265.307 379.804 265.63 379.337 266.275C378.881 266.909 378.653 267.704 378.653 268.66C378.653 269.617 378.881 270.417 379.337 271.062C379.804 271.696 380.483 272.013 381.372 272.013C382.073 272.013 382.629 271.813 383.04 271.413C383.452 271.012 383.708 270.484 383.808 269.828H385.209C385.075 270.784 384.681 271.591 384.024 272.247C383.38 272.903 382.49 273.231 381.356 273.231ZM389.565 265.474V270.579C389.565 270.99 389.582 271.296 389.615 271.496C389.66 271.685 389.766 271.835 389.932 271.946C390.11 272.058 390.394 272.113 390.783 272.113C391.05 272.113 391.339 272.074 391.65 271.996V273.031C391.573 273.064 391.4 273.097 391.133 273.131C390.878 273.164 390.611 273.181 390.333 273.181C389.688 273.181 389.204 273.092 388.881 272.914C388.57 272.725 388.364 272.475 388.264 272.163C388.175 271.841 388.131 271.418 388.131 270.895V265.474H386.496V264.323H388.131V261.438H389.565V264.323H391.65V265.474H389.565ZM393.879 264.323H395.313V273.114H393.879V264.323ZM394.579 262.689C394.312 262.689 394.09 262.6 393.912 262.422C393.734 262.233 393.645 262.01 393.645 261.754C393.645 261.499 393.734 261.282 393.912 261.104C394.09 260.915 394.312 260.82 394.579 260.82C394.846 260.82 395.068 260.915 395.246 261.104C395.435 261.282 395.53 261.499 395.53 261.754C395.53 262.01 395.435 262.233 395.246 262.422C395.068 262.6 394.846 262.689 394.579 262.689ZM401.652 273.231C400.762 273.231 400.006 273.019 399.383 272.597C398.772 272.163 398.31 271.602 397.999 270.912C397.687 270.212 397.532 269.461 397.532 268.66C397.532 267.86 397.687 267.115 397.999 266.425C398.31 265.724 398.772 265.163 399.383 264.74C400.006 264.307 400.762 264.09 401.652 264.09C402.541 264.09 403.292 264.307 403.904 264.74C404.526 265.163 404.988 265.724 405.288 266.425C405.6 267.126 405.755 267.871 405.755 268.66C405.755 269.45 405.6 270.195 405.288 270.895C404.977 271.596 404.51 272.163 403.887 272.597C403.275 273.019 402.53 273.231 401.652 273.231ZM401.652 271.996C402.197 271.996 402.669 271.846 403.07 271.546C403.481 271.246 403.792 270.845 404.004 270.345C404.215 269.833 404.321 269.266 404.321 268.644C404.321 267.687 404.082 266.892 403.603 266.258C403.125 265.624 402.475 265.307 401.652 265.307C401.096 265.307 400.612 265.458 400.201 265.758C399.8 266.058 399.494 266.464 399.283 266.976C399.072 267.476 398.966 268.032 398.966 268.644C398.966 269.6 399.205 270.401 399.683 271.046C400.162 271.679 400.818 271.996 401.652 271.996ZM407.852 264.323H409.287V265.908H409.42C409.643 265.396 410.004 264.968 410.505 264.624C411.005 264.268 411.617 264.09 412.34 264.09C413.085 264.09 413.707 264.268 414.208 264.624C414.708 264.968 415.075 265.43 415.309 266.008C415.553 266.575 415.676 267.192 415.676 267.86V273.114H414.241V268.043C414.241 267.176 414.013 266.514 413.557 266.058C413.112 265.602 412.529 265.374 411.806 265.374C411.038 265.374 410.427 265.624 409.971 266.125C409.515 266.614 409.287 267.254 409.287 268.043V273.114H407.852V264.323Z" fill="#6FE2CC"/>
<path d="M88.9998 7.09766V189.195H516.674" stroke="#384B63" stroke-width="0.926705"/>
<path d="M92.7418 207.183L92.0354 207.89L88.7787 204.633L89.485 203.926L90.7877 205.229L95.5582 200.459L95.5215 200.422L93.0262 200.349L93.9711 199.404L96.4664 199.477L97.2462 200.257L91.5308 205.972L92.7418 207.183ZM99.4402 209.258L99.4219 209.221L99.1008 209.231C98.4158 209.243 97.8103 208.986 97.2844 208.46C96.9052 208.081 96.6483 207.653 96.5138 207.176C96.3853 206.705 96.3884 206.225 96.5229 205.735C96.6697 205.246 96.9511 204.793 97.3669 204.378C97.8134 203.931 98.2904 203.644 98.7981 203.515C99.3179 203.387 99.8225 203.402 100.312 203.561C100.807 203.726 101.254 204.008 101.651 204.405C102.024 204.778 102.299 205.212 102.477 205.708C102.66 206.197 102.691 206.717 102.569 207.267C102.446 207.818 102.131 208.347 101.624 208.854C101.257 209.221 100.856 209.518 100.422 209.744C99.9876 209.971 99.5442 210.145 99.0916 210.267C98.6452 210.383 98.1039 210.503 97.4679 210.625L95.2202 211.074L94.3396 210.212L99.4402 209.258ZM98.1009 208.047C98.3883 208.335 98.7033 208.515 99.0458 208.588C99.3944 208.668 99.7338 208.653 100.064 208.542C100.407 208.432 100.709 208.246 100.972 207.983C101.235 207.72 101.419 207.42 101.523 207.084C101.639 206.747 101.657 206.405 101.578 206.056C101.498 205.708 101.315 205.39 101.027 205.102C100.728 204.803 100.4 204.61 100.046 204.524C99.6971 204.445 99.3516 204.46 99.0091 204.57C98.6788 204.68 98.3852 204.864 98.1284 205.121C97.8776 205.371 97.6941 205.665 97.5779 206.001C97.4679 206.344 97.4526 206.695 97.5321 207.056C97.6116 207.417 97.8012 207.747 98.1009 208.047ZM100.558 216.614C100.057 216.113 99.7171 215.602 99.5397 215.082C99.3685 214.568 99.3379 214.085 99.448 213.633C99.5642 213.186 99.7844 212.801 100.109 212.477C100.39 212.195 100.699 212.003 101.035 211.899C101.378 211.789 101.705 211.749 102.017 211.779C102.335 211.804 102.601 211.874 102.815 211.99L102.861 211.945C102.732 211.62 102.702 211.247 102.769 210.825C102.842 210.409 103.05 210.03 103.393 209.688C103.705 209.376 104.072 209.162 104.494 209.046C104.922 208.936 105.371 208.951 105.842 209.091C106.319 209.238 106.778 209.532 107.218 209.972C107.665 210.419 107.955 210.88 108.09 211.357C108.237 211.834 108.246 212.284 108.117 212.706C108.001 213.128 107.793 213.489 107.494 213.789C107.151 214.131 106.763 214.336 106.328 214.403C105.894 214.47 105.527 214.44 105.228 214.311L105.182 214.357C105.298 214.571 105.368 214.837 105.393 215.155C105.423 215.467 105.384 215.795 105.273 216.137C105.169 216.473 104.977 216.782 104.695 217.064C104.371 217.388 103.986 217.608 103.54 217.724C103.093 217.84 102.61 217.81 102.09 217.632C101.576 217.461 101.066 217.122 100.558 216.614ZM104.273 212.899C104.702 213.327 105.133 213.544 105.567 213.55C106.007 213.55 106.387 213.391 106.705 213.073C107.016 212.761 107.172 212.385 107.172 211.945C107.179 211.498 106.968 211.061 106.539 210.633C106.111 210.205 105.677 209.991 105.237 209.991C104.802 209.997 104.426 210.159 104.108 210.477C103.79 210.795 103.628 211.171 103.622 211.605C103.628 212.039 103.845 212.471 104.273 212.899ZM101.228 215.926C101.564 216.262 101.904 216.486 102.246 216.596C102.595 216.7 102.919 216.712 103.218 216.632C103.524 216.547 103.787 216.394 104.007 216.174C104.356 215.825 104.524 215.4 104.512 214.899C104.506 214.391 104.258 213.892 103.769 213.403C103.274 212.908 102.772 212.657 102.264 212.651C101.769 212.645 101.344 212.819 100.989 213.174C100.641 213.522 100.469 213.944 100.475 214.44C100.488 214.941 100.738 215.437 101.228 215.926ZM106.12 222.158C105.35 221.388 105.035 220.547 105.176 219.635C105.328 218.724 105.827 217.846 106.671 217.002L107.625 216.048C108.469 215.204 109.34 214.712 110.24 214.571C111.151 214.431 111.992 214.746 112.762 215.516C113.533 216.287 113.845 217.125 113.698 218.03C113.557 218.929 113.065 219.8 112.221 220.644L111.267 221.599C110.423 222.443 109.542 222.938 108.625 223.085C107.72 223.231 106.885 222.923 106.12 222.158ZM106.818 221.461C107.282 221.926 107.821 222.097 108.432 221.975C109.05 221.858 109.72 221.44 110.441 220.718L111.331 219.828C112.053 219.106 112.472 218.443 112.588 217.837C112.71 217.226 112.536 216.684 112.065 216.213C111.594 215.743 111.05 215.565 110.432 215.681C109.827 215.798 109.163 216.216 108.441 216.938L107.552 217.828C106.83 218.55 106.408 219.216 106.286 219.828C106.169 220.446 106.347 220.99 106.818 221.461Z" fill="#384B63"/>
<path d="M38.0586 72.7487L33.881 72.7357V71.7237L37.7472 65.9115H39.1613V71.8405H40.4587V72.7487H39.1613V74.9932H38.0586V72.7487ZM38.0586 71.8275V67.2478L34.9578 71.8275H38.0586ZM45.0069 75.1229C43.9171 75.1229 43.0997 74.751 42.5548 74.0072C42.0186 73.2547 41.7504 72.2816 41.7504 71.088V69.7387C41.7504 68.5452 42.0186 67.5808 42.5548 66.8456C43.0997 66.1017 43.9171 65.7298 45.0069 65.7298C46.0967 65.7298 46.9097 66.1017 47.446 66.8456C47.9822 67.5808 48.2503 68.5452 48.2503 69.7387V71.088C48.2503 72.2816 47.9779 73.2547 47.433 74.0072C46.8967 74.751 46.088 75.1229 45.0069 75.1229ZM45.0069 74.1369C45.6642 74.1369 46.1659 73.8774 46.5118 73.3585C46.8665 72.8395 47.0438 72.0697 47.0438 71.0491V69.7906C47.0438 68.77 46.8708 68.0046 46.5248 67.4943C46.1789 66.9753 45.6729 66.7158 45.0069 66.7158C44.3409 66.7158 43.8306 66.9753 43.476 67.4943C43.13 68.0046 42.957 68.77 42.957 69.7906V71.0491C42.957 72.0697 43.13 72.8395 43.476 73.3585C43.8306 73.8774 44.3409 74.1369 45.0069 74.1369ZM52.9002 75.1229C51.8104 75.1229 50.993 74.751 50.4481 74.0072C49.9118 73.2547 49.6437 72.2816 49.6437 71.088V69.7387C49.6437 68.5452 49.9118 67.5808 50.4481 66.8456C50.993 66.1017 51.8104 65.7298 52.9002 65.7298C53.99 65.7298 54.803 66.1017 55.3392 66.8456C55.8755 67.5808 56.1436 68.5452 56.1436 69.7387V71.088C56.1436 72.2816 55.8712 73.2547 55.3263 74.0072C54.79 74.751 53.9813 75.1229 52.9002 75.1229ZM52.9002 74.1369C53.5575 74.1369 54.0592 73.8774 54.4051 73.3585C54.7597 72.8395 54.9371 72.0697 54.9371 71.0491V69.7906C54.9371 68.77 54.7641 68.0046 54.4181 67.4943C54.0721 66.9753 53.5662 66.7158 52.9002 66.7158C52.2342 66.7158 51.7239 66.9753 51.3692 67.4943C51.0233 68.0046 50.8503 68.77 50.8503 69.7906V71.0491C50.8503 72.0697 51.0233 72.8395 51.3692 73.3585C51.7239 73.8774 52.2342 74.1369 52.9002 74.1369ZM58.1088 76.6019C58.6364 76.3684 58.9002 76.0224 58.9002 75.564C58.9002 75.3478 58.8612 75.2094 58.7834 75.1489C58.7142 75.097 58.6061 75.071 58.4591 75.071C58.0266 75.071 57.8104 74.8591 57.8104 74.4353C57.8104 74.2018 57.8796 74.0158 58.0179 73.8774C58.165 73.739 58.3682 73.6698 58.6277 73.6698C59.2418 73.6698 59.5489 74.0028 59.5489 74.6688V75.1359C59.5489 75.6721 59.4148 76.0959 59.1467 76.4073C58.8872 76.7273 58.5412 76.9522 58.1088 77.082V76.6019ZM64.4677 75.1229C63.3779 75.1229 62.5605 74.751 62.0156 74.0072C61.4794 73.2547 61.2112 72.2816 61.2112 71.088V69.7387C61.2112 68.5452 61.4794 67.5808 62.0156 66.8456C62.5605 66.1017 63.3779 65.7298 64.4677 65.7298C65.5575 65.7298 66.3705 66.1017 66.9068 66.8456C67.443 67.5808 67.7111 68.5452 67.7111 69.7387V71.088C67.7111 72.2816 67.4387 73.2547 66.8938 74.0072C66.3575 74.751 65.5488 75.1229 64.4677 75.1229ZM64.4677 74.1369C65.125 74.1369 65.6267 73.8774 65.9726 73.3585C66.3273 72.8395 66.5046 72.0697 66.5046 71.0491V69.7906C66.5046 68.77 66.3316 68.0046 65.9856 67.4943C65.6397 66.9753 65.1337 66.7158 64.4677 66.7158C63.8017 66.7158 63.2914 66.9753 62.9368 67.4943C62.5908 68.0046 62.4178 68.77 62.4178 69.7906V71.0491C62.4178 72.0697 62.5908 72.8395 62.9368 73.3585C63.2914 73.8774 63.8017 74.1369 64.4677 74.1369ZM72.361 75.1229C71.2712 75.1229 70.4538 74.751 69.9089 74.0072C69.3726 73.2547 69.1045 72.2816 69.1045 71.088V69.7387C69.1045 68.5452 69.3726 67.5808 69.9089 66.8456C70.4538 66.1017 71.2712 65.7298 72.361 65.7298C73.4508 65.7298 74.2638 66.1017 74.8 66.8456C75.3363 67.5808 75.6044 68.5452 75.6044 69.7387V71.088C75.6044 72.2816 75.332 73.2547 74.7871 74.0072C74.2508 74.751 73.4421 75.1229 72.361 75.1229ZM72.361 74.1369C73.0183 74.1369 73.52 73.8774 73.8659 73.3585C74.2205 72.8395 74.3979 72.0697 74.3979 71.0491V69.7906C74.3979 68.77 74.2249 68.0046 73.8789 67.4943C73.5329 66.9753 73.027 66.7158 72.361 66.7158C71.695 66.7158 71.1847 66.9753 70.83 67.4943C70.4841 68.0046 70.3111 68.77 70.3111 69.7906V71.0491C70.3111 72.0697 70.4841 72.8395 70.83 73.3585C71.1847 73.8774 71.695 74.1369 72.361 74.1369ZM80.2542 75.1229C79.1644 75.1229 78.3471 74.751 77.8022 74.0072C77.2659 73.2547 76.9978 72.2816 76.9978 71.088V69.7387C76.9978 68.5452 77.2659 67.5808 77.8022 66.8456C78.3471 66.1017 79.1644 65.7298 80.2542 65.7298C81.344 65.7298 82.1571 66.1017 82.6933 66.8456C83.2296 67.5808 83.4977 68.5452 83.4977 69.7387V71.088C83.4977 72.2816 83.2253 73.2547 82.6804 74.0072C82.1441 74.751 81.3354 75.1229 80.2542 75.1229ZM80.2542 74.1369C80.9116 74.1369 81.4132 73.8774 81.7592 73.3585C82.1138 72.8395 82.2911 72.0697 82.2911 71.0491V69.7906C82.2911 68.77 82.1182 68.0046 81.7722 67.4943C81.4262 66.9753 80.9202 66.7158 80.2542 66.7158C79.5882 66.7158 79.0779 66.9753 78.7233 67.4943C78.3774 68.0046 78.2044 68.77 78.2044 69.7906V71.0491C78.2044 72.0697 78.3774 72.8395 78.7233 73.3585C79.0779 73.8774 79.5882 74.1369 80.2542 74.1369Z" fill="#384B63"/>
<path d="M37.1634 16.7146C36.6271 16.7146 36.1211 16.6065 35.6454 16.3903C35.1697 16.1654 34.7805 15.8194 34.4778 15.3524C34.1751 14.8767 34.0237 14.2799 34.0237 13.562C34.0237 12.8268 34.1621 12.1522 34.4389 11.5381C34.7243 10.924 35.1438 10.219 35.6973 9.42332L36.9947 7.52913H38.1364L35.2822 11.7586L35.3211 11.7716L35.5416 11.5381C36.0173 11.0451 36.6271 10.7985 37.3709 10.7985C37.9072 10.7985 38.3872 10.9196 38.811 11.1618C39.2435 11.3953 39.5808 11.7327 39.823 12.1738C40.0738 12.6149 40.1993 13.1295 40.1993 13.7177C40.1993 14.3404 40.0609 14.881 39.7841 15.3394C39.516 15.7892 39.1484 16.1308 38.6813 16.3643C38.2229 16.5979 37.7169 16.7146 37.1634 16.7146ZM37.0985 15.7805C37.5223 15.7805 37.8856 15.6854 38.1883 15.4951C38.4997 15.3048 38.7332 15.0583 38.8889 14.7556C39.0532 14.4442 39.1354 14.1069 39.1354 13.7436C39.1354 13.389 39.0532 13.0517 38.8889 12.7317C38.7332 12.4116 38.4997 12.1565 38.1883 11.9662C37.8769 11.7673 37.5093 11.6678 37.0855 11.6678C36.4801 11.6678 35.9957 11.8667 35.6324 12.2646C35.2778 12.6625 35.1005 13.1511 35.1005 13.7306C35.1005 14.1026 35.1784 14.4442 35.3341 14.7556C35.4984 15.0669 35.7319 15.3178 36.0346 15.5081C36.3374 15.6897 36.692 15.7805 37.0985 15.7805ZM44.8548 16.7406C43.765 16.7406 42.9477 16.3687 42.4028 15.6248C41.8665 14.8723 41.5984 13.8993 41.5984 12.7057V11.3564C41.5984 10.1628 41.8665 9.19844 42.4028 8.46325C42.9477 7.71942 43.765 7.3475 44.8548 7.3475C45.9446 7.3475 46.7577 7.71942 47.2939 8.46325C47.8302 9.19844 48.0983 10.1628 48.0983 11.3564V12.7057C48.0983 13.8993 47.8259 14.8723 47.281 15.6248C46.7447 16.3687 45.936 16.7406 44.8548 16.7406ZM44.8548 15.7546C45.5122 15.7546 46.0138 15.4951 46.3598 14.9761C46.7144 14.4572 46.8917 13.6874 46.8917 12.6668V11.4083C46.8917 10.3877 46.7188 9.62225 46.3728 9.11194C46.0268 8.59299 45.5208 8.33351 44.8548 8.33351C44.1888 8.33351 43.6785 8.59299 43.3239 9.11194C42.978 9.62225 42.805 10.3877 42.805 11.4083V12.6668C42.805 13.6874 42.978 14.4572 43.3239 14.9761C43.6785 15.4951 44.1888 15.7546 44.8548 15.7546ZM52.7481 16.7406C51.6583 16.7406 50.841 16.3687 50.2961 15.6248C49.7598 14.8723 49.4917 13.8993 49.4917 12.7057V11.3564C49.4917 10.1628 49.7598 9.19844 50.2961 8.46325C50.841 7.71942 51.6583 7.3475 52.7481 7.3475C53.8379 7.3475 54.651 7.71942 55.1872 8.46325C55.7235 9.19844 55.9916 10.1628 55.9916 11.3564V12.7057C55.9916 13.8993 55.7191 14.8723 55.1742 15.6248C54.638 16.3687 53.8293 16.7406 52.7481 16.7406ZM52.7481 15.7546C53.4055 15.7546 53.9071 15.4951 54.2531 14.9761C54.6077 14.4572 54.785 13.6874 54.785 12.6668V11.4083C54.785 10.3877 54.612 9.62225 54.2661 9.11194C53.9201 8.59299 53.4141 8.33351 52.7481 8.33351C52.0821 8.33351 51.5718 8.59299 51.2172 9.11194C50.8712 9.62225 50.6983 10.3877 50.6983 11.4083V12.6668C50.6983 13.6874 50.8712 14.4572 51.2172 14.9761C51.5718 15.4951 52.0821 15.7546 52.7481 15.7546ZM57.9567 18.2196C58.4843 17.9861 58.7481 17.6401 58.7481 17.1817C58.7481 16.9655 58.7092 16.8271 58.6314 16.7665C58.5622 16.7146 58.4541 16.6887 58.307 16.6887C57.8746 16.6887 57.6583 16.4768 57.6583 16.053C57.6583 15.8194 57.7275 15.6335 57.8659 15.4951C58.0129 15.3567 58.2162 15.2875 58.4757 15.2875C59.0898 15.2875 59.3968 15.6205 59.3968 16.2865V16.7536C59.3968 17.2898 59.2628 17.7136 58.9946 18.025C58.7352 18.345 58.3892 18.5699 57.9567 18.6996V18.2196ZM64.3156 16.7406C63.2258 16.7406 62.4085 16.3687 61.8636 15.6248C61.3273 14.8723 61.0592 13.8993 61.0592 12.7057V11.3564C61.0592 10.1628 61.3273 9.19844 61.8636 8.46325C62.4085 7.71942 63.2258 7.3475 64.3156 7.3475C65.4054 7.3475 66.2185 7.71942 66.7547 8.46325C67.291 9.19844 67.5591 10.1628 67.5591 11.3564V12.7057C67.5591 13.8993 67.2867 14.8723 66.7418 15.6248C66.2055 16.3687 65.3968 16.7406 64.3156 16.7406ZM64.3156 15.7546C64.973 15.7546 65.4746 15.4951 65.8206 14.9761C66.1752 14.4572 66.3525 13.6874 66.3525 12.6668V11.4083C66.3525 10.3877 66.1796 9.62225 65.8336 9.11194C65.4876 8.59299 64.9816 8.33351 64.3156 8.33351C63.6496 8.33351 63.1393 8.59299 62.7847 9.11194C62.4388 9.62225 62.2658 10.3877 62.2658 11.4083V12.6668C62.2658 13.6874 62.4388 14.4572 62.7847 14.9761C63.1393 15.4951 63.6496 15.7546 64.3156 15.7546ZM72.2089 16.7406C71.1191 16.7406 70.3018 16.3687 69.7569 15.6248C69.2206 14.8723 68.9525 13.8993 68.9525 12.7057V11.3564C68.9525 10.1628 69.2206 9.19844 69.7569 8.46325C70.3018 7.71942 71.1191 7.3475 72.2089 7.3475C73.2987 7.3475 74.1118 7.71942 74.648 8.46325C75.1843 9.19844 75.4524 10.1628 75.4524 11.3564V12.7057C75.4524 13.8993 75.1799 14.8723 74.635 15.6248C74.0988 16.3687 73.2901 16.7406 72.2089 16.7406ZM72.2089 15.7546C72.8663 15.7546 73.3679 15.4951 73.7139 14.9761C74.0685 14.4572 74.2458 13.6874 74.2458 12.6668V11.4083C74.2458 10.3877 74.0728 9.62225 73.7269 9.11194C73.3809 8.59299 72.8749 8.33351 72.2089 8.33351C71.5429 8.33351 71.0326 8.59299 70.678 9.11194C70.332 9.62225 70.1591 10.3877 70.1591 11.4083V12.6668C70.1591 13.6874 70.332 14.4572 70.678 14.9761C71.0326 15.4951 71.5429 15.7546 72.2089 15.7546ZM80.1022 16.7406C79.0124 16.7406 78.195 16.3687 77.6501 15.6248C77.1139 14.8723 76.8458 13.8993 76.8458 12.7057V11.3564C76.8458 10.1628 77.1139 9.19844 77.6501 8.46325C78.195 7.71942 79.0124 7.3475 80.1022 7.3475C81.192 7.3475 82.005 7.71942 82.5413 8.46325C83.0775 9.19844 83.3457 10.1628 83.3457 11.3564V12.7057C83.3457 13.8993 83.0732 14.8723 82.5283 15.6248C81.9921 16.3687 81.1834 16.7406 80.1022 16.7406ZM80.1022 15.7546C80.7595 15.7546 81.2612 15.4951 81.6072 14.9761C81.9618 14.4572 82.1391 13.6874 82.1391 12.6668V11.4083C82.1391 10.3877 81.9661 9.62225 81.6201 9.11194C81.2742 8.59299 80.7682 8.33351 80.1022 8.33351C79.4362 8.33351 78.9259 8.59299 78.5713 9.11194C78.2253 9.62225 78.0523 10.3877 78.0523 11.4083V12.6668C78.0523 13.6874 78.2253 14.4572 78.5713 14.9761C78.9259 15.4951 79.4362 15.7546 80.1022 15.7546Z" fill="#384B63"/>
<path d="M34.2053 133.329L36.3849 131.37L36.6185 131.176C37.172 130.691 37.6045 130.293 37.9159 129.982C38.2359 129.662 38.4997 129.316 38.7073 128.944C38.9235 128.572 39.0316 128.183 39.0316 127.776C39.0316 127.283 38.8802 126.868 38.5775 126.531C38.2834 126.185 37.8337 126.012 37.2282 126.012C36.5103 126.012 36.0217 126.215 35.7622 126.622C35.5027 127.02 35.373 127.461 35.373 127.945V128.036H34.2702C34.2702 127.517 34.3697 127.033 34.5686 126.583C34.7675 126.124 35.0875 125.752 35.5287 125.467C35.9784 125.173 36.5449 125.026 37.2282 125.026C37.8769 125.026 38.4175 125.156 38.85 125.415C39.2824 125.666 39.5981 125.999 39.7971 126.414C40.0046 126.821 40.1084 127.262 40.1084 127.737C40.1084 128.265 39.9917 128.754 39.7581 129.204C39.5246 129.645 39.2392 130.042 38.9019 130.397C38.5645 130.743 38.1018 131.171 37.5137 131.682L35.7362 133.238V133.303H40.1993V134.302H34.2053V133.329ZM44.7915 134.432C43.7017 134.432 42.8843 134.06 42.3394 133.316C41.8032 132.564 41.5351 131.591 41.5351 130.397V129.048C41.5351 127.854 41.8032 126.89 42.3394 126.155C42.8843 125.411 43.7017 125.039 44.7915 125.039C45.8813 125.039 46.6943 125.411 47.2306 126.155C47.7668 126.89 48.035 127.854 48.035 129.048V130.397C48.035 131.591 47.7625 132.564 47.2176 133.316C46.6814 134.06 45.8726 134.432 44.7915 134.432ZM44.7915 133.446C45.4488 133.446 45.9505 133.186 46.2965 132.668C46.6511 132.149 46.8284 131.379 46.8284 130.358V129.1C46.8284 128.079 46.6554 127.314 46.3094 126.803C45.9635 126.284 45.4575 126.025 44.7915 126.025C44.1255 126.025 43.6152 126.284 43.2606 126.803C42.9146 127.314 42.7416 128.079 42.7416 129.1V130.358C42.7416 131.379 42.9146 132.149 43.2606 132.668C43.6152 133.186 44.1255 133.446 44.7915 133.446ZM52.6848 134.432C51.595 134.432 50.7776 134.06 50.2327 133.316C49.6965 132.564 49.4283 131.591 49.4283 130.397V129.048C49.4283 127.854 49.6965 126.89 50.2327 126.155C50.7776 125.411 51.595 125.039 52.6848 125.039C53.7746 125.039 54.5876 125.411 55.1239 126.155C55.6601 126.89 55.9282 127.854 55.9282 129.048V130.397C55.9282 131.591 55.6558 132.564 55.1109 133.316C54.5746 134.06 53.7659 134.432 52.6848 134.432ZM52.6848 133.446C53.3421 133.446 53.8438 133.186 54.1897 132.668C54.5444 132.149 54.7217 131.379 54.7217 130.358V129.1C54.7217 128.079 54.5487 127.314 54.2027 126.803C53.8567 126.284 53.3508 126.025 52.6848 126.025C52.0188 126.025 51.5085 126.284 51.1539 126.803C50.8079 127.314 50.6349 128.079 50.6349 129.1V130.358C50.6349 131.379 50.8079 132.149 51.1539 132.668C51.5085 133.186 52.0188 133.446 52.6848 133.446ZM57.8934 135.911C58.421 135.677 58.6848 135.332 58.6848 134.873C58.6848 134.657 58.6459 134.518 58.568 134.458C58.4988 134.406 58.3907 134.38 58.2437 134.38C57.8112 134.38 57.595 134.168 57.595 133.744C57.595 133.511 57.6642 133.325 57.8026 133.186C57.9496 133.048 58.1529 132.979 58.4123 132.979C59.0264 132.979 59.3335 133.312 59.3335 133.978V134.445C59.3335 134.981 59.1994 135.405 58.9313 135.716C58.6718 136.036 58.3258 136.261 57.8934 136.391V135.911ZM64.2523 134.432C63.1625 134.432 62.3451 134.06 61.8002 133.316C61.264 132.564 60.9959 131.591 60.9959 130.397V129.048C60.9959 127.854 61.264 126.89 61.8002 126.155C62.3451 125.411 63.1625 125.039 64.2523 125.039C65.3421 125.039 66.1551 125.411 66.6914 126.155C67.2276 126.89 67.4958 127.854 67.4958 129.048V130.397C67.4958 131.591 67.2233 132.564 66.6784 133.316C66.1422 134.06 65.3334 134.432 64.2523 134.432ZM64.2523 133.446C64.9096 133.446 65.4113 133.186 65.7573 132.668C66.1119 132.149 66.2892 131.379 66.2892 130.358V129.1C66.2892 128.079 66.1162 127.314 65.7702 126.803C65.4243 126.284 64.9183 126.025 64.2523 126.025C63.5863 126.025 63.076 126.284 62.7214 126.803C62.3754 127.314 62.2024 128.079 62.2024 129.1V130.358C62.2024 131.379 62.3754 132.149 62.7214 132.668C63.076 133.186 63.5863 133.446 64.2523 133.446ZM72.1456 134.432C71.0558 134.432 70.2384 134.06 69.6935 133.316C69.1573 132.564 68.8891 131.591 68.8891 130.397V129.048C68.8891 127.854 69.1573 126.89 69.6935 126.155C70.2384 125.411 71.0558 125.039 72.1456 125.039C73.2354 125.039 74.0484 125.411 74.5847 126.155C75.1209 126.89 75.389 127.854 75.389 129.048V130.397C75.389 131.591 75.1166 132.564 74.5717 133.316C74.0354 134.06 73.2267 134.432 72.1456 134.432ZM72.1456 133.446C72.8029 133.446 73.3046 133.186 73.6505 132.668C74.0052 132.149 74.1825 131.379 74.1825 130.358V129.1C74.1825 128.079 74.0095 127.314 73.6635 126.803C73.3175 126.284 72.8116 126.025 72.1456 126.025C71.4796 126.025 70.9693 126.284 70.6147 126.803C70.2687 127.314 70.0957 128.079 70.0957 129.1V130.358C70.0957 131.379 70.2687 132.149 70.6147 132.668C70.9693 133.186 71.4796 133.446 72.1456 133.446ZM80.0389 134.432C78.949 134.432 78.1317 134.06 77.5868 133.316C77.0505 132.564 76.7824 131.591 76.7824 130.397V129.048C76.7824 127.854 77.0505 126.89 77.5868 126.155C78.1317 125.411 78.949 125.039 80.0389 125.039C81.1287 125.039 81.9417 125.411 82.4779 126.155C83.0142 126.89 83.2823 127.854 83.2823 129.048V130.397C83.2823 131.591 83.0099 132.564 82.465 133.316C81.9287 134.06 81.12 134.432 80.0389 134.432ZM80.0389 133.446C80.6962 133.446 81.1978 133.186 81.5438 132.668C81.8984 132.149 82.0757 131.379 82.0757 130.358V129.1C82.0757 128.079 81.9028 127.314 81.5568 126.803C81.2108 126.284 80.7048 126.025 80.0389 126.025C79.3729 126.025 78.8626 126.284 78.5079 126.803C78.162 127.314 77.989 128.079 77.989 129.1V130.358C77.989 131.379 78.162 132.149 78.5079 132.668C78.8626 133.186 79.3729 133.446 80.0389 133.446Z" fill="#384B63"/>
<path d="M79.8307 193.741C78.7409 193.741 77.9235 193.369 77.3786 192.625C76.8424 191.873 76.5743 190.9 76.5743 189.706V188.357C76.5743 187.163 76.8424 186.199 77.3786 185.463C77.9235 184.72 78.7409 184.348 79.8307 184.348C80.9205 184.348 81.7335 184.72 82.2698 185.463C82.806 186.199 83.0742 187.163 83.0742 188.357V189.706C83.0742 190.9 82.8017 191.873 82.2568 192.625C81.7206 193.369 80.9119 193.741 79.8307 193.741ZM79.8307 192.755C80.488 192.755 80.9897 192.495 81.3357 191.976C81.6903 191.457 81.8676 190.688 81.8676 189.667V188.409C81.8676 187.388 81.6946 186.622 81.3486 186.112C81.0027 185.593 80.4967 185.334 79.8307 185.334C79.1647 185.334 78.6544 185.593 78.2998 186.112C77.9538 186.622 77.7808 187.388 77.7808 188.409V189.667C77.7808 190.688 77.9538 191.457 78.2998 191.976C78.6544 192.495 79.1647 192.755 79.8307 192.755Z" fill="#384B63"/>
<path d="M8.77986 113.111L8.77986 115.784L16.8496 115.784L16.8496 116.899L8.77986 116.899L8.77986 119.572L7.7679 119.572L7.7679 113.111L8.77986 113.111ZM16.9404 109.777C16.9404 110.469 16.7761 111.057 16.4474 111.542C16.1101 112.017 15.6733 112.376 15.1371 112.619C14.5922 112.861 14.0083 112.982 13.3856 112.982C12.7628 112.982 12.1833 112.861 11.6471 112.619C11.1022 112.376 10.6654 112.017 10.3367 111.542C9.99941 111.057 9.83075 110.469 9.83075 109.777C9.83075 109.085 9.99941 108.502 10.3367 108.026C10.6654 107.541 11.1022 107.183 11.6471 106.949C12.192 106.707 12.7715 106.586 13.3856 106.586C13.9997 106.586 14.5792 106.707 15.1241 106.949C15.669 107.191 16.1101 107.554 16.4474 108.039C16.7761 108.514 16.9404 109.094 16.9404 109.777ZM15.9804 109.777C15.9804 109.353 15.8636 108.986 15.6301 108.674C15.3965 108.354 15.0852 108.112 14.6959 107.948C14.2981 107.784 13.857 107.701 13.3726 107.701C12.6288 107.701 12.0104 107.887 11.5173 108.259C11.0243 108.631 10.7778 109.137 10.7778 109.777C10.7778 110.21 10.8946 110.586 11.1281 110.906C11.3617 111.217 11.6774 111.455 12.0752 111.62C12.4644 111.784 12.8969 111.866 13.3726 111.866C14.1164 111.866 14.7392 111.68 15.2408 111.308C15.7339 110.936 15.9804 110.426 15.9804 109.777ZM10.0124 104.955L10.0124 103.839L11.2449 103.839L11.2449 103.735C10.847 103.562 10.514 103.281 10.2459 102.892C9.96913 102.502 9.83075 102.027 9.83075 101.465C9.83075 100.885 9.96913 100.401 10.2459 100.012C10.514 99.6223 10.873 99.3369 11.3227 99.1552C11.7639 98.9649 12.2439 98.8698 12.7628 98.8698L16.8496 98.8698L16.8496 99.9856L12.9056 99.9856C12.2309 99.9856 11.7163 100.163 11.3617 100.517C11.007 100.863 10.8297 101.318 10.8297 101.88C10.8297 102.477 11.0243 102.952 11.4136 103.307C11.7941 103.661 12.2915 103.839 12.9056 103.839L16.8496 103.839L16.8496 104.955L10.0124 104.955ZM10.0124 96.9726L10.0124 95.8568L11.2449 95.8568L11.2449 95.753C10.847 95.58 10.514 95.2989 10.2459 94.9097C9.96913 94.5205 9.83075 94.0448 9.83075 93.4826C9.83075 92.9031 9.96913 92.4187 10.2459 92.0295C10.514 91.6403 10.873 91.3549 11.3227 91.1733C11.7639 90.983 12.2439 90.8878 12.7628 90.8878L16.8496 90.8878L16.8496 92.0036L12.9056 92.0036C12.2309 92.0036 11.7163 92.1809 11.3617 92.5355C11.007 92.8815 10.8297 93.3356 10.8297 93.8978C10.8297 94.4946 11.0243 94.9703 11.4136 95.3249C11.7941 95.6795 12.2915 95.8568 12.9056 95.8568L16.8496 95.8568L16.8496 96.9726L10.0124 96.9726ZM16.9404 86.1104C16.9404 86.811 16.7718 87.4035 16.4344 87.8878C16.0971 88.3635 15.656 88.7182 15.1111 88.9517C14.5662 89.1852 13.991 89.302 13.3856 89.302C12.7715 89.302 12.1963 89.1852 11.6601 88.9517C11.1152 88.7182 10.674 88.3592 10.3367 87.8749C9.99941 87.3905 9.83075 86.798 9.83075 86.0974C9.83075 85.1806 10.1378 84.4498 10.7519 83.9049C11.366 83.3513 12.2482 83.0745 13.3986 83.0745L13.7099 83.0745L13.7099 88.1862L13.8007 88.1862C14.1813 88.1862 14.5403 88.0997 14.8776 87.9268C15.2149 87.7538 15.4874 87.5116 15.6949 87.2002C15.9025 86.8888 16.0063 86.5299 16.0063 86.1234C16.0063 85.6823 15.8939 85.3017 15.669 84.9817C15.4441 84.6617 15.1414 84.4238 14.7608 84.2681L14.7608 83.1653C15.3836 83.347 15.9025 83.6886 16.3177 84.1903C16.7328 84.6833 16.9404 85.3233 16.9404 86.1104ZM12.9185 84.1773C12.1401 84.2119 11.5779 84.4022 11.2319 84.7482C10.886 85.0941 10.713 85.5482 10.713 86.1104C10.713 86.7245 10.9162 87.2132 11.3227 87.5765C11.7293 87.9397 12.2612 88.1343 12.9185 88.1603L12.9185 84.1773ZM16.9404 79.0914C16.9404 79.645 16.8323 80.125 16.6161 80.5315C16.3912 80.9381 16.1058 81.2494 15.7598 81.4657C15.4138 81.6732 15.0506 81.777 14.67 81.777L14.6051 81.777L14.6051 80.6613L14.657 80.6613C14.8733 80.6613 15.0895 80.6007 15.3057 80.4797C15.5133 80.3586 15.6863 80.1769 15.8247 79.9347C15.9544 79.6926 16.0193 79.3985 16.0193 79.0525C16.0193 78.6374 15.9198 78.2957 15.7209 78.0276C15.5133 77.7508 15.2322 77.6124 14.8776 77.6124C14.5835 77.6124 14.35 77.7205 14.177 77.9368C14.004 78.1444 13.8916 78.4082 13.8397 78.7282L13.7099 79.6234C13.6234 80.1856 13.4332 80.657 13.1391 81.0375C12.8364 81.4181 12.3996 81.6084 11.8287 81.6084C11.1973 81.6084 10.7086 81.3835 10.3627 80.9337C10.0081 80.4753 9.83075 79.8915 9.83075 79.1823C9.83075 78.6547 9.93021 78.2049 10.1291 77.833C10.3194 77.4524 10.5746 77.1627 10.8946 76.9637C11.206 76.7648 11.5476 76.6653 11.9195 76.6653L11.9714 76.6653L11.9714 77.7811L11.9455 77.7811C11.7725 77.7811 11.5909 77.8287 11.4006 77.9238C11.2103 78.0103 11.046 78.1617 10.9076 78.3779C10.7692 78.5941 10.7 78.8709 10.7 79.2082C10.7 79.6234 10.8038 79.9564 11.0114 80.2072C11.2103 80.458 11.4741 80.5834 11.8028 80.5834C12.0709 80.5834 12.2915 80.484 12.4644 80.285C12.6374 80.0861 12.7499 79.8353 12.8018 79.5326L12.9574 78.5595C13.0526 77.9887 13.2515 77.5086 13.5542 77.1194C13.8483 76.7302 14.2851 76.5356 14.8646 76.5356C15.2798 76.5356 15.643 76.648 15.9544 76.8729C16.2658 77.0891 16.508 77.3919 16.6809 77.7811C16.8539 78.1703 16.9404 78.6071 16.9404 79.0914Z" fill="#384B63"/>
<path d="M293.399 245.033V241.738L290.441 235.938H291.661L293.918 240.479H294.009L296.253 235.938H297.473L294.528 241.738V245.02L293.399 245.033ZM300.492 245.111C299.792 245.111 299.199 244.942 298.715 244.605C298.239 244.268 297.884 243.826 297.651 243.282C297.417 242.737 297.301 242.161 297.301 241.556C297.301 240.942 297.417 240.367 297.651 239.83C297.884 239.286 298.243 238.844 298.728 238.507C299.212 238.17 299.805 238.001 300.505 238.001C301.422 238.001 302.153 238.308 302.698 238.922C303.251 239.536 303.528 240.419 303.528 241.569V241.88H298.416V241.971C298.416 242.352 298.503 242.711 298.676 243.048C298.849 243.385 299.091 243.658 299.402 243.865C299.714 244.073 300.073 244.177 300.479 244.177C300.92 244.177 301.301 244.064 301.621 243.839C301.941 243.615 302.179 243.312 302.334 242.931H303.437C303.256 243.554 302.914 244.073 302.412 244.488C301.919 244.903 301.279 245.111 300.492 245.111ZM302.425 241.089C302.391 240.311 302.2 239.748 301.854 239.402C301.508 239.056 301.054 238.883 300.492 238.883C299.878 238.883 299.389 239.087 299.026 239.493C298.663 239.9 298.468 240.432 298.442 241.089H302.425ZM307.68 245.111C307.074 245.111 306.555 244.955 306.123 244.644C305.699 244.332 305.375 243.909 305.15 243.372C304.925 242.836 304.813 242.231 304.813 241.556C304.813 240.881 304.925 240.276 305.15 239.74C305.383 239.195 305.716 238.771 306.149 238.468C306.59 238.157 307.113 238.001 307.719 238.001C308.324 238.001 308.813 238.144 309.185 238.429C309.557 238.715 309.838 239.056 310.028 239.454H310.119V238.183H311.248V245.02H310.119V243.619H310.028C309.821 244.025 309.526 244.376 309.146 244.67C308.765 244.964 308.277 245.111 307.68 245.111ZM308.03 244.151C308.696 244.151 309.206 243.904 309.561 243.411C309.916 242.91 310.093 242.291 310.093 241.556C310.093 240.821 309.916 240.207 309.561 239.714C309.206 239.212 308.696 238.961 308.03 238.961C307.347 238.961 306.828 239.208 306.473 239.701C306.127 240.194 305.954 240.808 305.954 241.543C305.954 242.287 306.127 242.91 306.473 243.411C306.828 243.904 307.347 244.151 308.03 244.151ZM313.169 238.183H314.285V239.273H314.363C314.475 238.97 314.674 238.715 314.96 238.507C315.254 238.291 315.621 238.183 316.062 238.183C316.201 238.183 316.309 238.191 316.387 238.209C316.473 238.217 316.568 238.239 316.672 238.274L316.633 239.363C316.495 239.32 316.374 239.29 316.27 239.273C316.175 239.255 316.049 239.247 315.894 239.247C314.821 239.247 314.285 239.882 314.285 241.154V245.02H313.169V238.183Z" fill="#384B63"/>
<path d="M202.093 207.183L201.387 207.89L198.13 204.633L198.836 203.926L200.139 205.229L204.909 200.459L204.873 200.422L202.377 200.349L203.322 199.404L205.818 199.477L206.597 200.257L200.882 205.972L202.093 207.183ZM208.792 209.258L208.773 209.221L208.452 209.231C207.767 209.243 207.162 208.986 206.636 208.46C206.257 208.081 206 207.653 205.865 207.176C205.737 206.705 205.74 206.225 205.874 205.735C206.021 205.246 206.302 204.793 206.718 204.378C207.165 203.931 207.642 203.644 208.149 203.515C208.669 203.387 209.174 203.402 209.663 203.561C210.158 203.726 210.605 204.008 211.002 204.405C211.376 204.778 211.651 205.212 211.828 205.708C212.012 206.197 212.042 206.717 211.92 207.267C211.798 207.818 211.483 208.347 210.975 208.854C210.608 209.221 210.207 209.518 209.773 209.744C209.339 209.971 208.896 210.145 208.443 210.267C207.996 210.383 207.455 210.503 206.819 210.625L204.572 211.074L203.691 210.212L208.792 209.258ZM207.452 208.047C207.74 208.335 208.055 208.515 208.397 208.588C208.746 208.668 209.085 208.653 209.415 208.542C209.758 208.432 210.061 208.246 210.324 207.983C210.587 207.72 210.77 207.42 210.874 207.084C210.99 206.747 211.009 206.405 210.929 206.056C210.85 205.708 210.666 205.39 210.379 205.102C210.079 204.803 209.752 204.61 209.397 204.524C209.048 204.445 208.703 204.46 208.36 204.57C208.03 204.68 207.737 204.864 207.48 205.121C207.229 205.371 207.045 205.665 206.929 206.001C206.819 206.344 206.804 206.695 206.883 207.056C206.963 207.417 207.152 207.747 207.452 208.047ZM214.203 214.669L214.184 214.633L213.863 214.642C213.178 214.654 212.573 214.397 212.047 213.871C211.668 213.492 211.411 213.064 211.276 212.587C211.148 212.116 211.151 211.636 211.285 211.146C211.432 210.657 211.714 210.205 212.129 209.789C212.576 209.342 213.053 209.055 213.561 208.926C214.08 208.798 214.585 208.813 215.074 208.972C215.57 209.137 216.016 209.419 216.414 209.816C216.787 210.189 217.062 210.624 217.239 211.119C217.423 211.608 217.453 212.128 217.331 212.678C217.209 213.229 216.894 213.758 216.386 214.266C216.019 214.633 215.619 214.929 215.184 215.155C214.75 215.382 214.307 215.556 213.854 215.678C213.408 215.795 212.866 215.914 212.23 216.036L209.983 216.486L209.102 215.623L214.203 214.669ZM212.863 213.458C213.151 213.746 213.466 213.926 213.808 214C214.157 214.079 214.496 214.064 214.827 213.954C215.169 213.844 215.472 213.657 215.735 213.394C215.998 213.131 216.181 212.831 216.285 212.495C216.401 212.159 216.42 211.816 216.34 211.468C216.261 211.119 216.077 210.801 215.79 210.513C215.49 210.214 215.163 210.021 214.808 209.935C214.46 209.856 214.114 209.871 213.772 209.981C213.441 210.091 213.148 210.275 212.891 210.532C212.64 210.783 212.457 211.076 212.34 211.412C212.23 211.755 212.215 212.107 212.295 212.467C212.374 212.828 212.564 213.159 212.863 213.458ZM215.275 221.961C214.504 221.19 214.189 220.349 214.33 219.438C214.483 218.527 214.981 217.649 215.825 216.805L216.779 215.851C217.623 215.007 218.495 214.515 219.394 214.374C220.305 214.234 221.146 214.549 221.917 215.319C222.687 216.09 222.999 216.928 222.852 217.833C222.712 218.732 222.219 219.603 221.375 220.447L220.421 221.401C219.577 222.245 218.697 222.741 217.779 222.888C216.874 223.034 216.039 222.726 215.275 221.961ZM215.972 221.264C216.437 221.729 216.975 221.9 217.586 221.778C218.204 221.661 218.874 221.242 219.596 220.521L220.485 219.631C221.207 218.909 221.626 218.246 221.742 217.64C221.865 217.029 221.69 216.487 221.219 216.016C220.748 215.545 220.204 215.368 219.586 215.484C218.981 215.6 218.317 216.019 217.596 216.741L216.706 217.631C215.984 218.353 215.562 219.019 215.44 219.631C215.324 220.249 215.501 220.793 215.972 221.264Z" fill="#384B63"/>
<path d="M312.574 202.789L315.5 202.945L315.803 202.972C316.537 203.021 317.124 203.046 317.564 203.046C318.017 203.046 318.448 202.987 318.858 202.871C319.274 202.761 319.625 202.562 319.913 202.275C320.261 201.926 320.448 201.526 320.472 201.073C320.509 200.621 320.313 200.18 319.885 199.752C319.378 199.245 318.888 199.043 318.417 199.147C317.953 199.245 317.549 199.465 317.206 199.807L317.142 199.871L316.362 199.092C316.729 198.725 317.142 198.453 317.601 198.275C318.066 198.092 318.555 198.055 319.069 198.165C319.595 198.275 320.099 198.572 320.582 199.055C321.041 199.514 321.332 199.988 321.454 200.477C321.582 200.96 321.57 201.419 321.417 201.853C321.277 202.287 321.038 202.673 320.702 203.009C320.329 203.382 319.9 203.645 319.417 203.798C318.94 203.945 318.457 204.024 317.968 204.036C317.485 204.042 316.855 204.018 316.078 203.963L313.72 203.807L313.674 203.853L316.83 207.009L316.124 207.715L311.885 203.477L312.574 202.789ZM319.279 211.054C318.509 210.283 318.194 209.443 318.334 208.531C318.487 207.62 318.986 206.742 319.83 205.898L320.784 204.944C321.628 204.1 322.499 203.608 323.398 203.467C324.31 203.327 325.151 203.642 325.921 204.412C326.692 205.183 327.004 206.021 326.857 206.926C326.716 207.825 326.224 208.696 325.38 209.54L324.426 210.494C323.582 211.338 322.701 211.834 321.784 211.981C320.879 212.127 320.044 211.819 319.279 211.054ZM319.977 210.357C320.441 210.822 320.98 210.993 321.591 210.871C322.209 210.754 322.879 210.335 323.6 209.614L324.49 208.724C325.212 208.002 325.631 207.339 325.747 206.733C325.869 206.122 325.695 205.58 325.224 205.109C324.753 204.638 324.209 204.461 323.591 204.577C322.986 204.693 322.322 205.112 321.6 205.834L320.71 206.724C319.989 207.446 319.567 208.112 319.444 208.724C319.328 209.342 319.506 209.886 319.977 210.357ZM324.861 216.635C324.09 215.865 323.775 215.024 323.916 214.113C324.069 213.201 324.567 212.324 325.411 211.48L326.365 210.526C327.209 209.682 328.081 209.189 328.98 209.049C329.891 208.908 330.732 209.223 331.503 209.994C332.273 210.764 332.585 211.602 332.438 212.507C332.298 213.406 331.805 214.278 330.961 215.122L330.007 216.076C329.163 216.92 328.283 217.415 327.365 217.562C326.46 217.709 325.625 217.4 324.861 216.635ZM325.558 215.938C326.023 216.403 326.561 216.574 327.173 216.452C327.79 216.336 328.46 215.917 329.182 215.195L330.071 214.305C330.793 213.584 331.212 212.92 331.328 212.315C331.451 211.703 331.276 211.162 330.805 210.691C330.334 210.22 329.79 210.042 329.172 210.159C328.567 210.275 327.903 210.694 327.182 211.416L326.292 212.305C325.57 213.027 325.148 213.694 325.026 214.305C324.91 214.923 325.087 215.467 325.558 215.938ZM330.442 222.217C329.671 221.446 329.357 220.605 329.497 219.694C329.65 218.783 330.149 217.905 330.993 217.061L331.947 216.107C332.791 215.263 333.662 214.771 334.561 214.63C335.472 214.489 336.313 214.804 337.084 215.575C337.855 216.346 338.167 217.183 338.02 218.089C337.879 218.988 337.387 219.859 336.543 220.703L335.589 221.657C334.745 222.501 333.864 222.997 332.947 223.143C332.041 223.29 331.207 222.981 330.442 222.217ZM331.139 221.52C331.604 221.984 332.142 222.156 332.754 222.033C333.372 221.917 334.041 221.498 334.763 220.777L335.653 219.887C336.375 219.165 336.793 218.501 336.91 217.896C337.032 217.284 336.858 216.743 336.387 216.272C335.916 215.801 335.372 215.624 334.754 215.74C334.148 215.856 333.485 216.275 332.763 216.997L331.873 217.887C331.152 218.608 330.73 219.275 330.607 219.887C330.491 220.504 330.668 221.049 331.139 221.52Z" fill="#384B63"/>
<path d="M421.925 203.715L424.851 203.871L425.154 203.899C425.888 203.948 426.475 203.972 426.915 203.972C427.368 203.972 427.799 203.914 428.209 203.798C428.625 203.688 428.976 203.489 429.264 203.202C429.612 202.853 429.799 202.453 429.823 202C429.86 201.547 429.664 201.107 429.236 200.679C428.729 200.171 428.239 199.969 427.768 200.073C427.304 200.171 426.9 200.391 426.557 200.734L426.493 200.798L425.713 200.018C426.08 199.651 426.493 199.379 426.952 199.202C427.417 199.018 427.906 198.982 428.42 199.092C428.946 199.202 429.45 199.499 429.933 199.982C430.392 200.44 430.683 200.914 430.805 201.404C430.933 201.887 430.921 202.346 430.768 202.78C430.628 203.214 430.389 203.599 430.053 203.936C429.68 204.309 429.252 204.572 428.768 204.725C428.291 204.871 427.808 204.951 427.319 204.963C426.836 204.969 426.206 204.945 425.429 204.89L423.071 204.734L423.025 204.78L426.181 207.935L425.475 208.642L421.237 204.404L421.925 203.715ZM428.63 211.981C427.86 211.21 427.545 210.369 427.685 209.458C427.838 208.547 428.337 207.669 429.181 206.825L430.135 205.871C430.979 205.027 431.85 204.535 432.749 204.394C433.661 204.253 434.502 204.568 435.272 205.339C436.043 206.11 436.355 206.947 436.208 207.853C436.067 208.752 435.575 209.623 434.731 210.467L433.777 211.421C432.933 212.265 432.052 212.761 431.135 212.907C430.23 213.054 429.395 212.745 428.63 211.981ZM429.328 211.284C429.792 211.748 430.331 211.92 430.942 211.797C431.56 211.681 432.23 211.262 432.951 210.541L433.841 209.651C434.563 208.929 434.982 208.265 435.098 207.66C435.22 207.048 435.046 206.507 434.575 206.036C434.104 205.565 433.56 205.388 432.942 205.504C432.337 205.62 431.673 206.039 430.951 206.761L430.062 207.651C429.34 208.372 428.918 209.039 428.796 209.651C428.679 210.268 428.857 210.813 429.328 211.284ZM436.35 218.104L435.644 218.811L432.387 215.554L433.093 214.847L434.396 216.15L439.166 211.38L439.13 211.343L436.634 211.27L437.579 210.325L440.075 210.398L440.854 211.178L435.139 216.893L436.35 218.104ZM438.709 222.06C437.939 221.289 437.624 220.448 437.764 219.537C437.917 218.625 438.416 217.748 439.26 216.904L440.214 215.95C441.058 215.106 441.929 214.613 442.828 214.473C443.739 214.332 444.58 214.647 445.351 215.418C446.122 216.188 446.434 217.026 446.287 217.931C446.146 218.83 445.654 219.702 444.81 220.546L443.856 221.5C443.012 222.344 442.131 222.839 441.214 222.986C440.308 223.133 439.474 222.824 438.709 222.06ZM439.406 221.362C439.871 221.827 440.409 221.998 441.021 221.876C441.639 221.76 442.308 221.341 443.03 220.619L443.92 219.729C444.642 219.008 445.061 218.344 445.177 217.739C445.299 217.127 445.125 216.586 444.654 216.115C444.183 215.644 443.639 215.467 443.021 215.583C442.415 215.699 441.752 216.118 441.03 216.84L440.14 217.729C439.419 218.451 438.997 219.118 438.874 219.729C438.758 220.347 438.935 220.891 439.406 221.362Z" fill="#384B63"/>
<path d="M504.401 203.715L507.328 203.871L507.63 203.899C508.364 203.948 508.951 203.972 509.392 203.972C509.844 203.972 510.276 203.914 510.685 203.798C511.101 203.688 511.453 203.489 511.74 203.202C512.089 202.853 512.275 202.453 512.3 202C512.337 201.547 512.141 201.107 511.713 200.679C511.205 200.171 510.716 199.969 510.245 200.073C509.78 200.171 509.376 200.391 509.034 200.734L508.97 200.798L508.19 200.018C508.557 199.651 508.97 199.379 509.428 199.202C509.893 199.018 510.383 198.982 510.896 199.092C511.422 199.202 511.927 199.499 512.41 199.982C512.869 200.44 513.159 200.914 513.282 201.404C513.41 201.887 513.398 202.346 513.245 202.78C513.104 203.214 512.866 203.599 512.529 203.936C512.156 204.309 511.728 204.572 511.245 204.725C510.768 204.871 510.285 204.951 509.795 204.963C509.312 204.969 508.682 204.945 507.906 204.89L505.548 204.734L505.502 204.78L508.658 207.935L507.951 208.642L503.713 204.404L504.401 203.715ZM511.107 211.981C510.336 211.21 510.021 210.369 510.162 209.458C510.315 208.547 510.813 207.669 511.657 206.825L512.611 205.871C513.455 205.027 514.327 204.535 515.226 204.394C516.137 204.253 516.978 204.568 517.749 205.339C518.519 206.11 518.831 206.947 518.685 207.853C518.544 208.752 518.052 209.623 517.208 210.467L516.254 211.421C515.41 212.265 514.529 212.761 513.611 212.907C512.706 213.054 511.871 212.745 511.107 211.981ZM511.804 211.284C512.269 211.748 512.807 211.92 513.419 211.797C514.036 211.681 514.706 211.262 515.428 210.541L516.318 209.651C517.039 208.929 517.458 208.265 517.575 207.66C517.697 207.048 517.523 206.507 517.052 206.036C516.581 205.565 516.036 205.388 515.419 205.504C514.813 205.62 514.15 206.039 513.428 206.761L512.538 207.651C511.816 208.372 511.394 209.039 511.272 209.651C511.156 210.268 511.333 210.813 511.804 211.284ZM518.826 218.104L518.12 218.811L514.863 215.554L515.57 214.847L516.872 216.15L521.643 211.38L521.606 211.343L519.111 211.27L520.056 210.325L522.551 210.398L523.331 211.178L517.616 216.893L518.826 218.104ZM521.232 222.124C520.73 221.622 520.391 221.112 520.213 220.592C520.042 220.078 520.011 219.595 520.122 219.142C520.238 218.696 520.458 218.311 520.782 217.986C521.063 217.705 521.372 217.512 521.709 217.408C522.051 217.298 522.378 217.259 522.69 217.289C523.008 217.314 523.274 217.384 523.488 217.5L523.534 217.454C523.406 217.13 523.375 216.757 523.442 216.335C523.516 215.919 523.724 215.54 524.066 215.197C524.378 214.886 524.745 214.672 525.167 214.555C525.595 214.445 526.045 214.461 526.516 214.601C526.993 214.748 527.451 215.042 527.892 215.482C528.338 215.928 528.629 216.39 528.763 216.867C528.91 217.344 528.919 217.794 528.791 218.216C528.675 218.638 528.467 218.999 528.167 219.298C527.825 219.641 527.436 219.846 527.002 219.913C526.568 219.98 526.201 219.95 525.901 219.821L525.855 219.867C525.971 220.081 526.042 220.347 526.066 220.665C526.097 220.977 526.057 221.304 525.947 221.647C525.843 221.983 525.65 222.292 525.369 222.573C525.045 222.897 524.66 223.118 524.213 223.234C523.767 223.35 523.283 223.319 522.764 223.142C522.25 222.971 521.739 222.631 521.232 222.124ZM524.947 218.408C525.375 218.836 525.806 219.054 526.241 219.06C526.681 219.06 527.06 218.901 527.378 218.583C527.69 218.271 527.846 217.895 527.846 217.454C527.852 217.008 527.641 216.571 527.213 216.142C526.785 215.714 526.351 215.5 525.91 215.5C525.476 215.506 525.1 215.668 524.782 215.986C524.464 216.304 524.302 216.681 524.296 217.115C524.302 217.549 524.519 217.98 524.947 218.408ZM521.901 221.436C522.238 221.772 522.577 221.995 522.92 222.105C523.268 222.209 523.592 222.222 523.892 222.142C524.198 222.057 524.461 221.904 524.681 221.683C525.03 221.335 525.198 220.91 525.186 220.408C525.179 219.901 524.932 219.402 524.442 218.913C523.947 218.418 523.446 218.167 522.938 218.161C522.443 218.155 522.017 218.329 521.663 218.684C521.314 219.032 521.143 219.454 521.149 219.95C521.161 220.451 521.412 220.946 521.901 221.436Z" fill="#384B63"/>
<path d="M94.9102 189.658H105.567H116.688H127.808L138.465 187.342L149.586 189.658H160.706L170.9 183.635L182.484 189.658H192.677H204.261H214.918H226.039L237.159 173.904L248.28 154.443L258.937 152.59L270.057 164.637L280.714 181.781L292.298 172.978L302.492 123.399L313.612 139.153L324.27 118.302L335.39 105.328L346.047 98.8412L357.631 96.9878L368.751 77.527L379.408 54.3594L390.529 101.158L400.723 108.108L412.306 143.786L422.964 55.7494L434.084 102.548L444.741 109.962L455.862 107.182L466.982 71.0401L477.639 80.3071L489.223 103.475L499.88 93.281L510.537 116.912" stroke="#F7909A" stroke-width="2.78011"/>
<circle cx="488.76" cy="102.084" r="4.17017" fill="#F7909A"/>
<circle cx="477.639" cy="79.8438" r="4.17017" fill="#F7909A"/>
<circle cx="467.446" cy="71.5037" r="4.17017" fill="#F7909A"/>
<circle cx="456.325" cy="106.718" r="4.17017" fill="#F7909A"/>
<circle cx="445.205" cy="109.499" r="4.17017" fill="#F7909A"/>
<circle cx="434.084" cy="102.084" r="4.17017" fill="#F7909A"/>
<circle cx="422.964" cy="54.8228" r="4.17017" fill="#F7909A"/>
<circle cx="411.843" cy="143.786" r="4.17017" fill="#F7909A"/>
<circle cx="400.723" cy="108.572" r="4.17017" fill="#F7909A"/>
<circle cx="390.529" cy="100.231" r="4.17017" fill="#F7909A"/>
<circle cx="379.408" cy="54.8228" r="4.17017" fill="#F7909A"/>
<circle cx="368.288" cy="77.9905" r="4.17017" fill="#F7909A"/>
<circle cx="358.094" cy="97.4512" r="4.17017" fill="#F7909A"/>
<circle cx="346.974" cy="99.3049" r="4.17017" fill="#F7909A"/>
<circle cx="335.854" cy="104.865" r="4.17017" fill="#F7909A"/>
<circle cx="324.733" cy="118.765" r="4.17017" fill="#F7909A"/>
<circle cx="313.613" cy="139.153" r="4.17017" fill="#F7909A"/>
<circle cx="302.492" cy="123.399" r="4.17017" fill="#F7909A"/>
<circle cx="291.372" cy="173.441" r="4.17017" fill="#F7909A"/>
<circle cx="280.251" cy="180.854" r="4.17017" fill="#F7909A"/>
<circle cx="270.057" cy="164.174" r="4.17017" fill="#F7909A"/>
<circle cx="258.937" cy="152.127" r="4.17017" fill="#F7909A"/>
<circle cx="247.816" cy="153.98" r="4.17017" fill="#F7909A"/>
<circle cx="237.623" cy="173.441" r="4.17017" fill="#F7909A"/>
<circle cx="226.502" cy="190.122" r="4.17017" fill="#F7909A"/>
<circle cx="215.382" cy="190.122" r="4.17017" fill="#F7909A"/>
<circle cx="204.261" cy="190.122" r="4.17017" fill="#F7909A"/>
<circle cx="193.141" cy="190.122" r="4.17017" fill="#F7909A"/>
<circle cx="182.021" cy="190.122" r="4.17017" fill="#F7909A"/>
<circle cx="170.9" cy="183.635" r="4.17017" fill="#F7909A"/>
<circle cx="160.706" cy="189.195" r="4.17017" fill="#F7909A"/>
<circle cx="149.586" cy="189.195" r="4.17017" fill="#F7909A"/>
<circle cx="138.465" cy="186.415" r="4.17017" fill="#F7909A"/>
<circle cx="127.345" cy="190.122" r="4.17017" fill="#F7909A"/>
<circle cx="116.224" cy="190.122" r="4.17017" fill="#F7909A"/>
<circle cx="106.031" cy="190.122" r="4.17017" fill="#F7909A"/>
<circle cx="94.9102" cy="190.122" r="4.17017" fill="#F7909A"/>
<circle cx="511.001" cy="116.912" r="4.17017" fill="#F7909A"/>
<circle cx="499.88" cy="93.7444" r="4.17017" fill="#F7909A"/>
<path d="M94.447 127.569L105.104 128.96L117.151 113.206L127.808 102.548L138.465 109.962L149.586 100.695L160.243 106.255L171.364 95.1348L182.021 83.0876L193.141 54.3598L204.262 56.6765L214.919 52.5064L226.039 76.6007L236.696 60.8467L247.817 84.4777L258.474 74.7473L270.058 59.4567L280.715 49.2629L292.298 35.8257L302.956 99.305L313.613 85.8677L324.733 60.8467L335.39 71.9672L346.047 90.9646L358.094 92.818L368.288 107.182L378.945 116.912L390.529 101.158L401.186 116.912L412.307 102.548L423.427 121.546L434.084 138.69L445.205 148.42L455.862 143.787L466.056 150.274L478.103 154.907H488.76L499.88 140.08L510.537 148.42" stroke="#6FE2CC" stroke-width="2.78011"/>
<circle cx="106.031" cy="128.032" r="4.17017" fill="#6FE2CC"/>
<circle cx="116.225" cy="113.205" r="4.17017" fill="#6FE2CC"/>
<circle cx="127.345" cy="103.011" r="4.17017" fill="#6FE2CC"/>
<circle cx="138.465" cy="109.498" r="4.17017" fill="#6FE2CC"/>
<circle cx="149.586" cy="100.231" r="4.17017" fill="#6FE2CC"/>
<circle cx="160.706" cy="106.719" r="4.17017" fill="#6FE2CC"/>
<circle cx="170.9" cy="94.6712" r="4.17017" fill="#6FE2CC"/>
<circle cx="182.947" cy="82.624" r="4.17017" fill="#6FE2CC"/>
<circle cx="193.141" cy="53.8965" r="4.17017" fill="#6FE2CC"/>
<circle cx="204.261" cy="56.6763" r="4.17017" fill="#6FE2CC"/>
<circle cx="215.382" cy="52.043" r="4.17017" fill="#6FE2CC"/>
<circle cx="226.502" cy="77.0635" r="4.17017" fill="#6FE2CC"/>
<circle cx="237.623" cy="60.3828" r="4.17017" fill="#6FE2CC"/>
<circle cx="247.816" cy="84.4775" r="4.17017" fill="#6FE2CC"/>
<circle cx="258.937" cy="73.3572" r="4.17017" fill="#6FE2CC"/>
<circle cx="270.057" cy="59.4563" r="4.17017" fill="#6FE2CC"/>
<circle cx="281.178" cy="49.2629" r="4.17017" fill="#6FE2CC"/>
<circle cx="292.298" cy="35.3621" r="4.17017" fill="#6FE2CC"/>
<circle cx="302.492" cy="98.3782" r="4.17017" fill="#6FE2CC"/>
<circle cx="313.613" cy="85.4043" r="4.17017" fill="#6FE2CC"/>
<circle cx="334.927" cy="71.5034" r="4.17017" fill="#6FE2CC"/>
<circle cx="324.733" cy="59.4563" r="4.17017" fill="#6FE2CC"/>
<circle cx="346.047" cy="90.0378" r="4.17017" fill="#6FE2CC"/>
<circle cx="357.168" cy="92.8176" r="4.17017" fill="#6FE2CC"/>
<circle cx="369.215" cy="106.719" r="4.17017" fill="#6FE2CC"/>
<circle cx="379.408" cy="116.912" r="4.17017" fill="#6FE2CC"/>
<circle cx="390.529" cy="101.158" r="4.17017" fill="#6FE2CC"/>
<circle cx="401.649" cy="116.912" r="4.17017" fill="#6FE2CC"/>
<circle cx="412.77" cy="102.085" r="4.17017" fill="#6FE2CC"/>
<circle cx="422.964" cy="120.619" r="4.17017" fill="#6FE2CC"/>
<circle cx="434.084" cy="138.226" r="4.17017" fill="#6FE2CC"/>
<circle cx="445.205" cy="148.42" r="4.17017" fill="#6FE2CC"/>
<circle cx="456.325" cy="142.86" r="4.17017" fill="#6FE2CC"/>
<circle cx="466.519" cy="150.274" r="4.17017" fill="#6FE2CC"/>
<circle cx="477.639" cy="153.98" r="4.17017" fill="#6FE2CC"/>
<circle cx="488.76" cy="154.907" r="4.17017" fill="#6FE2CC"/>
<circle cx="499.88" cy="139.153" r="4.17017" fill="#6FE2CC"/>
<circle cx="510.074" cy="148.42" r="4.17017" fill="#6FE2CC"/>
<circle cx="94.9102" cy="127.106" r="4.17017" fill="#6FE2CC"/>
</svg>
