<svg width="545" height="276" viewBox="0 0 545 276" fill="none" xmlns="http://www.w3.org/2000/svg">
<path d="M201.941 260.006V263.923H207.101V265.115H201.941V269.271H207.8V270.599H200.459V258.677H207.8V260.006H201.941ZM214.175 274.193C213.834 274.193 213.556 274.17 213.341 274.125C213.136 274.08 212.926 274.017 212.71 273.938V272.711C212.858 272.757 213.057 272.796 213.307 272.831C213.556 272.876 213.8 272.899 214.039 272.899C214.925 272.899 215.589 272.649 216.032 272.149C216.486 271.65 216.713 270.985 216.713 270.157V268.539H216.577C216.338 269.072 215.952 269.526 215.418 269.901C214.896 270.264 214.26 270.446 213.511 270.446C212.761 270.446 212.103 270.253 211.535 269.867C210.967 269.481 210.525 268.947 210.207 268.266C209.9 267.573 209.747 266.784 209.747 265.899C209.747 265.013 209.9 264.229 210.207 263.548C210.525 262.856 210.967 262.316 211.535 261.93C212.103 261.544 212.761 261.351 213.511 261.351C214.294 261.351 214.947 261.555 215.47 261.964C216.003 262.362 216.378 262.827 216.594 263.361H216.713V261.641H218.195V270.157C218.195 270.792 218.064 271.417 217.803 272.03C217.553 272.643 217.127 273.154 216.526 273.563C215.924 273.983 215.14 274.193 214.175 274.193ZM213.988 269.186C214.567 269.186 215.061 269.032 215.47 268.726C215.878 268.408 216.179 267.999 216.372 267.5C216.577 266.989 216.679 266.444 216.679 265.865C216.679 265.297 216.577 264.769 216.372 264.281C216.179 263.792 215.878 263.395 215.47 263.088C215.072 262.782 214.578 262.628 213.988 262.628C213.113 262.628 212.444 262.946 211.978 263.582C211.524 264.207 211.297 264.968 211.297 265.865C211.297 266.455 211.393 267.006 211.586 267.517C211.791 268.016 212.092 268.419 212.489 268.726C212.898 269.032 213.397 269.186 213.988 269.186ZM224.072 271.843C223.89 272.274 223.714 272.626 223.544 272.899C223.385 273.183 223.118 273.449 222.743 273.699C222.369 273.949 221.88 274.074 221.279 274.074C220.961 274.074 220.62 274.028 220.257 273.938V272.848C220.529 272.893 220.768 272.916 220.972 272.916C221.347 272.916 221.648 272.842 221.875 272.694C222.102 272.558 222.278 272.376 222.403 272.149C222.539 271.922 222.698 271.593 222.88 271.161L223.288 270.157L219.967 261.624H221.5L224.004 268.539H224.106L226.729 261.624H228.262L224.072 271.843ZM234.682 270.719C233.898 270.719 233.257 270.526 232.757 270.14C232.258 269.753 231.871 269.294 231.599 268.76H231.48V274.057H229.998V261.624H231.48V263.293H231.599C231.849 262.77 232.218 262.322 232.706 261.947C233.194 261.572 233.836 261.385 234.631 261.385C235.437 261.385 236.124 261.59 236.691 261.998C237.271 262.396 237.708 262.952 238.003 263.667C238.298 264.371 238.446 265.166 238.446 266.052C238.446 266.938 238.298 267.732 238.003 268.436C237.708 269.14 237.276 269.697 236.709 270.105C236.141 270.514 235.465 270.719 234.682 270.719ZM234.222 269.458C235.108 269.458 235.777 269.135 236.232 268.487C236.697 267.84 236.93 267.028 236.93 266.052C236.93 265.087 236.703 264.281 236.249 263.633C235.794 262.986 235.119 262.663 234.222 262.663C233.336 262.663 232.661 262.986 232.195 263.633C231.741 264.281 231.514 265.087 231.514 266.052C231.514 267.017 231.747 267.829 232.212 268.487C232.678 269.135 233.348 269.458 234.222 269.458ZM243.011 262.799V268.011C243.011 268.431 243.029 268.743 243.063 268.947C243.108 269.14 243.216 269.294 243.386 269.407C243.568 269.521 243.857 269.577 244.255 269.577C244.527 269.577 244.823 269.538 245.14 269.458V270.514C245.061 270.548 244.885 270.582 244.612 270.616C244.351 270.65 244.079 270.667 243.795 270.667C243.136 270.667 242.642 270.577 242.313 270.395C241.995 270.202 241.785 269.946 241.683 269.629C241.592 269.299 241.547 268.868 241.547 268.334V262.799H239.878V261.624H241.547V258.677H243.011V261.624H245.14V262.799H243.011ZM255.275 258.677C256.24 258.677 257.029 258.87 257.643 259.256C258.267 259.642 258.716 260.13 258.988 260.721C259.261 261.311 259.397 261.936 259.397 262.594C259.397 263.253 259.261 263.877 258.988 264.468C258.716 265.047 258.273 265.53 257.66 265.916C257.047 266.29 256.252 266.478 255.275 266.478H252.652V270.599H251.222V258.677H255.275ZM255.088 265.2C255.905 265.2 256.587 265.007 257.132 264.621C257.688 264.224 257.966 263.548 257.966 262.594C257.966 261.652 257.688 260.988 257.132 260.602C256.587 260.204 255.905 260.006 255.088 260.006H252.652V265.2H255.088ZM261.233 261.624H262.698V263.054H262.8C262.947 262.657 263.209 262.322 263.583 262.049C263.969 261.766 264.452 261.624 265.031 261.624C265.213 261.624 265.355 261.635 265.457 261.658C265.57 261.669 265.695 261.697 265.831 261.743L265.78 263.173C265.599 263.117 265.44 263.077 265.303 263.054C265.179 263.032 265.014 263.02 264.81 263.02C263.402 263.02 262.698 263.855 262.698 265.524V270.599H261.233V261.624ZM270.987 270.719C270.079 270.719 269.307 270.503 268.671 270.071C268.046 269.629 267.575 269.055 267.257 268.351C266.939 267.636 266.78 266.869 266.78 266.052C266.78 265.234 266.939 264.474 267.257 263.77C267.575 263.054 268.046 262.481 268.671 262.049C269.307 261.607 270.079 261.385 270.987 261.385C271.895 261.385 272.662 261.607 273.286 262.049C273.922 262.481 274.393 263.054 274.7 263.77C275.018 264.485 275.177 265.246 275.177 266.052C275.177 266.858 275.018 267.619 274.7 268.334C274.382 269.049 273.905 269.629 273.269 270.071C272.645 270.503 271.884 270.719 270.987 270.719ZM270.987 269.458C271.543 269.458 272.026 269.305 272.435 268.998C272.855 268.692 273.173 268.283 273.389 267.772C273.604 267.25 273.712 266.671 273.712 266.035C273.712 265.058 273.468 264.246 272.98 263.599C272.492 262.952 271.827 262.628 270.987 262.628C270.419 262.628 269.925 262.782 269.505 263.088C269.097 263.395 268.784 263.809 268.569 264.332C268.353 264.843 268.245 265.41 268.245 266.035C268.245 267.011 268.489 267.829 268.977 268.487C269.466 269.135 270.135 269.458 270.987 269.458ZM280.639 270.719C279.845 270.719 279.163 270.514 278.596 270.105C278.039 269.697 277.613 269.14 277.318 268.436C277.023 267.732 276.875 266.938 276.875 266.052C276.875 265.155 277.023 264.354 277.318 263.65C277.613 262.946 278.045 262.396 278.613 261.998C279.18 261.59 279.867 261.385 280.674 261.385C281.468 261.385 282.11 261.578 282.598 261.964C283.098 262.339 283.467 262.782 283.705 263.293H283.841V257.825H285.306V270.599H283.841V268.76H283.705C283.433 269.305 283.047 269.77 282.547 270.157C282.059 270.531 281.423 270.719 280.639 270.719ZM281.082 269.458C281.968 269.458 282.644 269.135 283.109 268.487C283.575 267.829 283.807 267.017 283.807 266.052C283.807 265.087 283.575 264.281 283.109 263.633C282.644 262.986 281.968 262.663 281.082 262.663C280.185 262.663 279.51 262.986 279.055 263.633C278.601 264.281 278.374 265.087 278.374 266.052C278.374 267.028 278.601 267.84 279.055 268.487C279.521 269.135 280.197 269.458 281.082 269.458ZM295.681 270.599H294.199V268.896H294.097C293.859 269.418 293.49 269.861 292.99 270.225C292.502 270.577 291.9 270.753 291.185 270.753C290.435 270.753 289.811 270.571 289.311 270.208C288.811 269.844 288.442 269.373 288.204 268.794C287.977 268.215 287.863 267.585 287.863 266.903V261.624H289.328V266.716C289.328 267.59 289.549 268.266 289.992 268.743C290.435 269.208 291.014 269.441 291.73 269.441C292.479 269.441 293.075 269.191 293.518 268.692C293.972 268.181 294.199 267.522 294.199 266.716V261.624H295.681V270.599ZM301.941 270.719C301.01 270.719 300.221 270.497 299.574 270.054C298.938 269.612 298.467 269.038 298.16 268.334C297.854 267.619 297.7 266.858 297.7 266.052C297.7 265.246 297.854 264.491 298.16 263.787C298.467 263.071 298.938 262.492 299.574 262.049C300.221 261.607 301.01 261.385 301.941 261.385C303.099 261.385 304.008 261.72 304.666 262.39C305.336 263.06 305.739 263.883 305.876 264.86H304.445C304.343 264.201 304.082 263.667 303.661 263.259C303.241 262.839 302.674 262.628 301.958 262.628C301.05 262.628 300.357 262.958 299.88 263.616C299.415 264.264 299.182 265.075 299.182 266.052C299.182 267.028 299.415 267.846 299.88 268.504C300.357 269.152 301.05 269.475 301.958 269.475C302.674 269.475 303.241 269.271 303.661 268.862C304.082 268.453 304.343 267.914 304.445 267.244H305.876C305.739 268.221 305.336 269.044 304.666 269.714C304.008 270.384 303.099 270.719 301.941 270.719ZM310.324 262.799V268.011C310.324 268.431 310.341 268.743 310.375 268.947C310.42 269.14 310.528 269.294 310.699 269.407C310.88 269.521 311.17 269.577 311.567 269.577C311.84 269.577 312.135 269.538 312.453 269.458V270.514C312.373 270.548 312.197 270.582 311.925 270.616C311.664 270.65 311.391 270.667 311.107 270.667C310.449 270.667 309.955 270.577 309.626 270.395C309.308 270.202 309.098 269.946 308.995 269.629C308.904 269.299 308.859 268.868 308.859 268.334V262.799H307.19V261.624H308.859V258.677H310.324V261.624H312.453V262.799H310.324ZM314.728 261.624H316.193V270.599H314.728V261.624ZM315.443 259.954C315.171 259.954 314.944 259.864 314.762 259.682C314.58 259.489 314.489 259.262 314.489 259.001C314.489 258.74 314.58 258.518 314.762 258.336C314.944 258.143 315.171 258.047 315.443 258.047C315.716 258.047 315.943 258.143 316.124 258.336C316.318 258.518 316.414 258.74 316.414 259.001C316.414 259.262 316.318 259.489 316.124 259.682C315.943 259.864 315.716 259.954 315.443 259.954ZM322.665 270.719C321.756 270.719 320.984 270.503 320.348 270.071C319.724 269.629 319.253 269.055 318.935 268.351C318.617 267.636 318.458 266.869 318.458 266.052C318.458 265.234 318.617 264.474 318.935 263.77C319.253 263.054 319.724 262.481 320.348 262.049C320.984 261.607 321.756 261.385 322.665 261.385C323.573 261.385 324.34 261.607 324.964 262.049C325.6 262.481 326.071 263.054 326.378 263.77C326.696 264.485 326.855 265.246 326.855 266.052C326.855 266.858 326.696 267.619 326.378 268.334C326.06 269.049 325.583 269.629 324.947 270.071C324.322 270.503 323.562 270.719 322.665 270.719ZM322.665 269.458C323.221 269.458 323.704 269.305 324.112 268.998C324.533 268.692 324.85 268.283 325.066 267.772C325.282 267.25 325.39 266.671 325.39 266.035C325.39 265.058 325.146 264.246 324.657 263.599C324.169 262.952 323.505 262.628 322.665 262.628C322.097 262.628 321.603 262.782 321.183 263.088C320.774 263.395 320.462 263.809 320.246 264.332C320.03 264.843 319.923 265.41 319.923 266.035C319.923 267.011 320.167 267.829 320.655 268.487C321.143 269.135 321.813 269.458 322.665 269.458ZM328.996 261.624H330.461V263.242H330.597C330.824 262.719 331.193 262.282 331.704 261.93C332.215 261.567 332.839 261.385 333.577 261.385C334.338 261.385 334.974 261.567 335.485 261.93C335.996 262.282 336.371 262.753 336.609 263.344C336.859 263.923 336.984 264.553 336.984 265.234V270.599H335.519V265.422C335.519 264.536 335.286 263.86 334.821 263.395C334.367 262.929 333.77 262.697 333.032 262.697C332.249 262.697 331.624 262.952 331.159 263.463C330.693 263.963 330.461 264.616 330.461 265.422V270.599H328.996V261.624Z" fill="#F7909A"/>
<path d="M90.8398 8.84204V194.3H527.044" stroke="#384B63" stroke-width="0.946213"/>
<path d="M177.418 264.319H193.504" stroke="#F7909A" stroke-width="2.83864"/>
<circle cx="185.461" cy="264.319" r="4.25796" fill="#F7909A"/>
<path d="M96.9902 106.302L107.872 109.141L119.226 95.8936L130.581 76.9693L141.462 84.0659L152.817 72.2382L164.171 84.0659L175.526 77.9155L186.407 63.7223L197.762 61.8299L208.643 70.3458L219.998 76.9693L230.879 41.4863L242.234 87.8508L253.588 59.4644L264.943 88.797L275.824 76.0231L287.179 66.561L298.534 55.6795L309.888 80.2811L320.77 97.3129L332.124 74.1307L343.006 85.4852L354.36 103.936L365.715 107.721L376.596 123.334L387.951 131.85L398.832 118.603L410.66 133.742L421.541 120.022L432.896 128.538L444.25 147.935L455.132 159.763L466.486 156.924L477.368 162.602L488.722 165.44H500.077L511.431 151.247L522.313 160.709" stroke="#F7909A" stroke-width="2.83864"/>
<circle cx="96.5172" cy="106.302" r="4.25796" fill="#F7909A"/>
<circle cx="107.872" cy="109.141" r="4.25796" fill="#F7909A"/>
<circle cx="119.226" cy="95.8935" r="4.25796" fill="#F7909A"/>
<circle cx="130.581" cy="76.9694" r="4.25796" fill="#F7909A"/>
<circle cx="141.935" cy="83.5927" r="4.25796" fill="#F7909A"/>
<circle cx="153.29" cy="72.2382" r="4.25796" fill="#F7909A"/>
<circle cx="163.698" cy="83.5927" r="4.25796" fill="#F7909A"/>
<circle cx="175.053" cy="77.9154" r="4.25796" fill="#F7909A"/>
<circle cx="186.407" cy="63.7223" r="4.25796" fill="#F7909A"/>
<circle cx="197.762" cy="61.83" r="4.25796" fill="#F7909A"/>
<circle cx="209.117" cy="70.3458" r="4.25796" fill="#F7909A"/>
<circle cx="220.471" cy="76.9694" r="4.25796" fill="#F7909A"/>
<circle cx="230.88" cy="41.0131" r="4.25796" fill="#F7909A"/>
<circle cx="242.234" cy="87.3776" r="4.25796" fill="#F7909A"/>
<circle cx="253.589" cy="59.9374" r="4.25796" fill="#F7909A"/>
<circle cx="264.943" cy="88.3239" r="4.25796" fill="#F7909A"/>
<circle cx="275.351" cy="76.0231" r="4.25796" fill="#F7909A"/>
<circle cx="286.706" cy="66.5609" r="4.25796" fill="#F7909A"/>
<circle cx="298.061" cy="55.2064" r="4.25796" fill="#F7909A"/>
<circle cx="309.415" cy="79.808" r="4.25796" fill="#F7909A"/>
<circle cx="320.77" cy="96.8397" r="4.25796" fill="#F7909A"/>
<circle cx="332.124" cy="74.1305" r="4.25796" fill="#F7909A"/>
<circle cx="343.479" cy="85.4853" r="4.25796" fill="#F7909A"/>
<circle cx="353.887" cy="103.463" r="4.25796" fill="#F7909A"/>
<circle cx="365.242" cy="107.248" r="4.25796" fill="#F7909A"/>
<circle cx="376.596" cy="123.334" r="4.25796" fill="#F7909A"/>
<circle cx="387.951" cy="131.85" r="4.25796" fill="#F7909A"/>
<circle cx="399.305" cy="118.603" r="4.25796" fill="#F7909A"/>
<circle cx="410.66" cy="132.796" r="4.25796" fill="#F7909A"/>
<circle cx="422.015" cy="120.495" r="4.25796" fill="#F7909A"/>
<circle cx="433.369" cy="128.065" r="4.25796" fill="#F7909A"/>
<circle cx="443.777" cy="146.989" r="4.25796" fill="#F7909A"/>
<circle cx="455.132" cy="159.29" r="4.25796" fill="#F7909A"/>
<circle cx="466.486" cy="157.397" r="4.25796" fill="#F7909A"/>
<circle cx="476.895" cy="162.128" r="4.25796" fill="#F7909A"/>
<circle cx="488.249" cy="164.967" r="4.25796" fill="#F7909A"/>
<circle cx="500.55" cy="164.967" r="4.25796" fill="#F7909A"/>
<circle cx="510.958" cy="151.72" r="4.25796" fill="#F7909A"/>
<circle cx="522.313" cy="160.236" r="4.25796" fill="#F7909A"/>
<path d="M94.5418 212.428L93.8205 213.15L90.4952 209.824L91.2165 209.103L92.5466 210.433L97.4174 205.562L97.38 205.525L94.8321 205.45L95.7969 204.485L98.3448 204.56L99.141 205.356L93.3053 211.192L94.5418 212.428ZM101.381 214.547L101.362 214.509L101.035 214.519C100.335 214.531 99.717 214.269 99.18 213.732C98.7928 213.345 98.5305 212.908 98.3931 212.42C98.262 211.94 98.2651 211.449 98.4025 210.95C98.5524 210.45 98.8396 209.988 99.2643 209.564C99.7201 209.108 100.207 208.814 100.726 208.683C101.256 208.552 101.772 208.568 102.271 208.73C102.777 208.898 103.233 209.186 103.639 209.592C104.02 209.973 104.301 210.416 104.482 210.922C104.669 211.421 104.7 211.952 104.575 212.514C104.45 213.076 104.129 213.616 103.611 214.135C103.236 214.509 102.827 214.812 102.383 215.043C101.94 215.274 101.487 215.452 101.025 215.577C100.569 215.696 100.017 215.818 99.3673 215.942L97.0724 216.401L96.1732 215.521L101.381 214.547ZM100.014 213.31C100.307 213.604 100.629 213.788 100.978 213.863C101.334 213.944 101.681 213.929 102.018 213.816C102.368 213.704 102.677 213.513 102.946 213.245C103.214 212.976 103.401 212.67 103.508 212.327C103.626 211.983 103.645 211.634 103.564 211.278C103.483 210.922 103.295 210.597 103.002 210.304C102.696 209.998 102.362 209.801 101.999 209.713C101.643 209.632 101.291 209.648 100.941 209.76C100.604 209.873 100.304 210.06 100.042 210.322C99.7857 210.578 99.5984 210.878 99.4797 211.221C99.3673 211.571 99.3517 211.93 99.4329 212.299C99.5141 212.667 99.7076 213.004 100.014 213.31ZM102.523 222.058C102.01 221.546 101.664 221.024 101.483 220.493C101.308 219.969 101.277 219.476 101.389 219.013C101.508 218.558 101.733 218.164 102.064 217.833C102.351 217.546 102.666 217.349 103.01 217.243C103.359 217.131 103.693 217.09 104.012 217.121C104.337 217.146 104.608 217.218 104.827 217.337L104.874 217.29C104.743 216.959 104.711 216.578 104.78 216.147C104.855 215.722 105.067 215.335 105.417 214.986C105.735 214.667 106.11 214.449 106.541 214.33C106.978 214.217 107.437 214.233 107.918 214.377C108.405 214.527 108.873 214.826 109.323 215.276C109.779 215.732 110.075 216.203 110.213 216.69C110.363 217.177 110.372 217.636 110.241 218.067C110.122 218.498 109.91 218.867 109.604 219.173C109.254 219.522 108.858 219.732 108.414 219.8C107.971 219.869 107.596 219.838 107.29 219.707L107.244 219.753C107.362 219.972 107.434 220.244 107.459 220.568C107.49 220.887 107.45 221.221 107.337 221.571C107.231 221.914 107.034 222.229 106.747 222.517C106.416 222.848 106.023 223.072 105.567 223.191C105.111 223.31 104.618 223.279 104.087 223.097C103.562 222.923 103.041 222.576 102.523 222.058ZM106.316 218.264C106.753 218.701 107.194 218.923 107.637 218.929C108.087 218.929 108.474 218.767 108.798 218.442C109.117 218.124 109.276 217.739 109.276 217.29C109.282 216.834 109.067 216.388 108.63 215.95C108.193 215.513 107.749 215.295 107.3 215.295C106.856 215.301 106.472 215.466 106.148 215.791C105.823 216.116 105.657 216.5 105.651 216.943C105.657 217.387 105.879 217.827 106.316 218.264ZM103.206 221.355C103.55 221.699 103.896 221.927 104.246 222.039C104.602 222.145 104.933 222.158 105.239 222.076C105.551 221.989 105.82 221.833 106.045 221.608C106.4 221.252 106.572 220.818 106.56 220.306C106.553 219.788 106.301 219.279 105.801 218.779C105.295 218.273 104.783 218.017 104.265 218.011C103.759 218.005 103.325 218.183 102.963 218.545C102.607 218.901 102.432 219.332 102.438 219.838C102.451 220.35 102.707 220.856 103.206 221.355ZM108.202 227.718C107.415 226.932 107.094 226.073 107.237 225.143C107.393 224.212 107.902 223.316 108.764 222.454L109.738 221.48C110.6 220.618 111.49 220.116 112.408 219.972C113.338 219.828 114.197 220.15 114.984 220.937C115.771 221.724 116.089 222.579 115.939 223.503C115.796 224.421 115.293 225.311 114.431 226.173L113.457 227.147C112.595 228.009 111.696 228.515 110.759 228.665C109.835 228.814 108.983 228.499 108.202 227.718ZM108.914 227.007C109.389 227.481 109.938 227.656 110.563 227.531C111.193 227.412 111.877 226.985 112.614 226.248L113.522 225.339C114.259 224.602 114.687 223.925 114.806 223.307C114.931 222.682 114.753 222.129 114.272 221.649C113.791 221.168 113.235 220.987 112.605 221.105C111.986 221.224 111.309 221.652 110.572 222.389L109.663 223.297C108.926 224.034 108.496 224.715 108.371 225.339C108.252 225.97 108.433 226.526 108.914 227.007Z" fill="#384B63"/>
<path d="M38.4689 51.4097L34.2034 51.3964V50.3632L38.151 44.4285H39.5949V50.4824H40.9196V51.4097H39.5949V53.7014H38.4689V51.4097ZM38.4689 50.4692V45.793L35.3029 50.4692H38.4689ZM45.5635 53.8339C44.4507 53.8339 43.6162 53.4541 43.0598 52.6946C42.5122 51.9263 42.2385 50.9328 42.2385 49.7141V48.3364C42.2385 47.1177 42.5122 46.133 43.0598 45.3823C43.6162 44.6228 44.4507 44.2431 45.5635 44.2431C46.6762 44.2431 47.5064 44.6228 48.0539 45.3823C48.6014 46.133 48.8752 47.1177 48.8752 48.3364V49.7141C48.8752 50.9328 48.597 51.9263 48.0407 52.6946C47.4931 53.4541 46.6674 53.8339 45.5635 53.8339ZM45.5635 52.8271C46.2346 52.8271 46.7469 52.5622 47.1001 52.0323C47.4622 51.5024 47.6432 50.7164 47.6432 49.6743V48.3894C47.6432 47.3473 47.4666 46.5657 47.1134 46.0447C46.7601 45.5148 46.2435 45.2498 45.5635 45.2498C44.8835 45.2498 44.3624 45.5148 44.0003 46.0447C43.6471 46.5657 43.4704 47.3473 43.4704 48.3894V49.6743C43.4704 50.7164 43.6471 51.5024 44.0003 52.0323C44.3624 52.5622 44.8835 52.8271 45.5635 52.8271ZM53.6229 53.8339C52.5102 53.8339 51.6756 53.4541 51.1192 52.6946C50.5717 51.9263 50.2979 50.9328 50.2979 49.7141V48.3364C50.2979 47.1177 50.5717 46.133 51.1192 45.3823C51.6756 44.6228 52.5102 44.2431 53.6229 44.2431C54.7357 44.2431 55.5658 44.6228 56.1133 45.3823C56.6609 46.133 56.9347 47.1177 56.9347 48.3364V49.7141C56.9347 50.9328 56.6565 51.9263 56.1001 52.6946C55.5526 53.4541 54.7268 53.8339 53.6229 53.8339ZM53.6229 52.8271C54.2941 52.8271 54.8063 52.5622 55.1596 52.0323C55.5216 51.5024 55.7027 50.7164 55.7027 49.6743V48.3894C55.7027 47.3473 55.5261 46.5657 55.1728 46.0447C54.8196 45.5148 54.3029 45.2498 53.6229 45.2498C52.9429 45.2498 52.4219 45.5148 52.0598 46.0447C51.7065 46.5657 51.5299 47.3473 51.5299 48.3894V49.6743C51.5299 50.7164 51.7065 51.5024 52.0598 52.0323C52.4219 52.5622 52.9429 52.8271 53.6229 52.8271ZM58.9412 55.344C59.4799 55.1056 59.7492 54.7523 59.7492 54.2843C59.7492 54.0635 59.7095 53.9222 59.63 53.8604C59.5594 53.8074 59.449 53.7809 59.2988 53.7809C58.8573 53.7809 58.6365 53.5645 58.6365 53.1318C58.6365 52.8934 58.7071 52.7035 58.8484 52.5622C58.9986 52.4209 59.2061 52.3502 59.471 52.3502C60.0981 52.3502 60.4116 52.6902 60.4116 53.3702V53.8471C60.4116 54.3947 60.2747 54.8274 60.0009 55.1453C59.736 55.4721 59.3827 55.7017 58.9412 55.8342V55.344ZM65.4339 53.8339C64.3212 53.8339 63.4866 53.4541 62.9303 52.6946C62.3827 51.9263 62.1089 50.9328 62.1089 49.7141V48.3364C62.1089 47.1177 62.3827 46.133 62.9303 45.3823C63.4866 44.6228 64.3212 44.2431 65.4339 44.2431C66.5467 44.2431 67.3768 44.6228 67.9244 45.3823C68.4719 46.133 68.7457 47.1177 68.7457 48.3364V49.7141C68.7457 50.9328 68.4675 51.9263 67.9111 52.6946C67.3636 53.4541 66.5379 53.8339 65.4339 53.8339ZM65.4339 52.8271C66.1051 52.8271 66.6173 52.5622 66.9706 52.0323C67.3327 51.5024 67.5137 50.7164 67.5137 49.6743V48.3894C67.5137 47.3473 67.3371 46.5657 66.9838 46.0447C66.6306 45.5148 66.1139 45.2498 65.4339 45.2498C64.7539 45.2498 64.2329 45.5148 63.8708 46.0447C63.5175 46.5657 63.3409 47.3473 63.3409 48.3894V49.6743C63.3409 50.7164 63.5175 51.5024 63.8708 52.0323C64.2329 52.5622 64.7539 52.8271 65.4339 52.8271ZM73.4934 53.8339C72.3806 53.8339 71.5461 53.4541 70.9897 52.6946C70.4422 51.9263 70.1684 50.9328 70.1684 49.7141V48.3364C70.1684 47.1177 70.4422 46.133 70.9897 45.3823C71.5461 44.6228 72.3806 44.2431 73.4934 44.2431C74.6061 44.2431 75.4363 44.6228 75.9838 45.3823C76.5314 46.133 76.8051 47.1177 76.8051 48.3364V49.7141C76.8051 50.9328 76.5269 51.9263 75.9706 52.6946C75.423 53.4541 74.5973 53.8339 73.4934 53.8339ZM73.4934 52.8271C74.1646 52.8271 74.6768 52.5622 75.03 52.0323C75.3921 51.5024 75.5732 50.7164 75.5732 49.6743V48.3894C75.5732 47.3473 75.3965 46.5657 75.0433 46.0447C74.69 45.5148 74.1734 45.2498 73.4934 45.2498C72.8134 45.2498 72.2923 45.5148 71.9302 46.0447C71.577 46.5657 71.4004 47.3473 71.4004 48.3894V49.6743C71.4004 50.7164 71.577 51.5024 71.9302 52.0323C72.2923 52.5622 72.8134 52.8271 73.4934 52.8271ZM81.5528 53.8339C80.4401 53.8339 79.6055 53.4541 79.0491 52.6946C78.5016 51.9263 78.2278 50.9328 78.2278 49.7141V48.3364C78.2278 47.1177 78.5016 46.133 79.0491 45.3823C79.6055 44.6228 80.4401 44.2431 81.5528 44.2431C82.6656 44.2431 83.4957 44.6228 84.0433 45.3823C84.5908 46.133 84.8646 47.1177 84.8646 48.3364V49.7141C84.8646 50.9328 84.5864 51.9263 84.03 52.6946C83.4825 53.4541 82.6567 53.8339 81.5528 53.8339ZM81.5528 52.8271C82.224 52.8271 82.7362 52.5622 83.0895 52.0323C83.4516 51.5024 83.6326 50.7164 83.6326 49.6743V48.3894C83.6326 47.3473 83.456 46.5657 83.1027 46.0447C82.7495 45.5148 82.2328 45.2498 81.5528 45.2498C80.8728 45.2498 80.3518 45.5148 79.9897 46.0447C79.6364 46.5657 79.4598 47.3473 79.4598 48.3894V49.6743C79.4598 50.7164 79.6364 51.5024 79.9897 52.0323C80.3518 52.5622 80.8728 52.8271 81.5528 52.8271Z" fill="#384B63"/>
<path d="M37.6078 89.7634C36.654 89.7634 35.9122 89.5338 35.3823 89.0746C34.8613 88.6154 34.5389 88.0502 34.4153 87.379H35.5678C35.6914 87.7852 35.921 88.112 36.2566 88.3593C36.6011 88.6065 37.047 88.7302 37.5946 88.7302C38.2481 88.7302 38.7382 88.5668 39.065 88.24C39.4006 87.9133 39.5684 87.5026 39.5684 87.0081C39.5684 86.4605 39.3785 86.041 38.9988 85.7496C38.619 85.4582 38.151 85.3125 37.5946 85.3125H36.7203V84.3984H37.5416C38.0715 84.3984 38.5219 84.2748 38.8928 84.0275C39.2637 83.7802 39.4492 83.3784 39.4492 82.822C39.4492 82.3098 39.2769 81.9036 38.9325 81.6033C38.5881 81.303 38.1333 81.1529 37.5681 81.1529C37.0382 81.1529 36.6187 81.2765 36.3096 81.5238C36.0094 81.7711 35.8151 82.0934 35.7268 82.4909H34.614C34.72 81.855 35.007 81.3119 35.4751 80.8615C35.9431 80.4022 36.6452 80.1726 37.5813 80.1726C38.2525 80.1726 38.8133 80.2963 39.2637 80.5435C39.7141 80.7908 40.0453 81.1132 40.2572 81.5106C40.4692 81.8992 40.5752 82.3186 40.5752 82.769C40.5752 83.2459 40.4692 83.6389 40.2572 83.948C40.0453 84.2483 39.8112 84.4735 39.5551 84.6236C39.3079 84.7649 39.1401 84.8356 39.0518 84.8356V84.9151C39.1666 84.9239 39.352 84.9945 39.6081 85.127C39.8731 85.2595 40.1159 85.4891 40.3367 85.8158C40.5663 86.1426 40.6811 86.5709 40.6811 87.1008C40.6811 87.5865 40.5707 88.0325 40.35 88.4387C40.1292 88.8362 39.7847 89.1585 39.3167 89.4058C38.8575 89.6442 38.2878 89.7634 37.6078 89.7634ZM45.3565 89.7899C44.2437 89.7899 43.4092 89.4102 42.8528 88.6507C42.3053 87.8824 42.0315 86.8889 42.0315 85.6701V84.2924C42.0315 83.0737 42.3053 82.089 42.8528 81.3384C43.4092 80.5789 44.2437 80.1991 45.3565 80.1991C46.4692 80.1991 47.2994 80.5789 47.8469 81.3384C48.3945 82.089 48.6682 83.0737 48.6682 84.2924V85.6701C48.6682 86.8889 48.39 87.8824 47.8337 88.6507C47.2861 89.4102 46.4604 89.7899 45.3565 89.7899ZM45.3565 88.7832C46.0277 88.7832 46.5399 88.5182 46.8931 87.9884C47.2552 87.4585 47.4363 86.6725 47.4363 85.6304V84.3454C47.4363 83.3033 47.2596 82.5218 46.9064 82.0007C46.5531 81.4708 46.0365 81.2059 45.3565 81.2059C44.6765 81.2059 44.1554 81.4708 43.7933 82.0007C43.4401 82.5218 43.2635 83.3033 43.2635 84.3454V85.6304C43.2635 86.6725 43.4401 87.4585 43.7933 87.9884C44.1554 88.5182 44.6765 88.7832 45.3565 88.7832ZM53.4159 89.7899C52.3032 89.7899 51.4686 89.4102 50.9122 88.6507C50.3647 87.8824 50.0909 86.8889 50.0909 85.6701V84.2924C50.0909 83.0737 50.3647 82.089 50.9122 81.3384C51.4686 80.5789 52.3032 80.1991 53.4159 80.1991C54.5287 80.1991 55.3588 80.5789 55.9064 81.3384C56.4539 82.089 56.7277 83.0737 56.7277 84.2924V85.6701C56.7277 86.8889 56.4495 87.8824 55.8931 88.6507C55.3456 89.4102 54.5198 89.7899 53.4159 89.7899ZM53.4159 88.7832C54.0871 88.7832 54.5993 88.5182 54.9526 87.9884C55.3147 87.4585 55.4957 86.6725 55.4957 85.6304V84.3454C55.4957 83.3033 55.3191 82.5218 54.9658 82.0007C54.6126 81.4708 54.0959 81.2059 53.4159 81.2059C52.7359 81.2059 52.2149 81.4708 51.8528 82.0007C51.4995 82.5218 51.3229 83.3033 51.3229 84.3454V85.6304C51.3229 86.6725 51.4995 87.4585 51.8528 87.9884C52.2149 88.5182 52.7359 88.7832 53.4159 88.7832ZM58.7342 91.3001C59.2729 91.0617 59.5422 90.7084 59.5422 90.2403C59.5422 90.0196 59.5025 89.8783 59.423 89.8164C59.3524 89.7634 59.242 89.737 59.0918 89.737C58.6503 89.737 58.4295 89.5206 58.4295 89.0879C58.4295 88.8494 58.5001 88.6595 58.6414 88.5182C58.7916 88.3769 58.9991 88.3063 59.2641 88.3063C59.8911 88.3063 60.2046 88.6463 60.2046 89.3263V89.8032C60.2046 90.3507 60.0677 90.7835 59.7939 91.1014C59.529 91.4282 59.1757 91.6578 58.7342 91.7902V91.3001ZM65.227 89.7899C64.1142 89.7899 63.2796 89.4102 62.7233 88.6507C62.1757 87.8824 61.902 86.8889 61.902 85.6701V84.2924C61.902 83.0737 62.1757 82.089 62.7233 81.3384C63.2796 80.5789 64.1142 80.1991 65.227 80.1991C66.3397 80.1991 67.1698 80.5789 67.7174 81.3384C68.2649 82.089 68.5387 83.0737 68.5387 84.2924V85.6701C68.5387 86.8889 68.2605 87.8824 67.7041 88.6507C67.1566 89.4102 66.3309 89.7899 65.227 89.7899ZM65.227 88.7832C65.8981 88.7832 66.4104 88.5182 66.7636 87.9884C67.1257 87.4585 67.3067 86.6725 67.3067 85.6304V84.3454C67.3067 83.3033 67.1301 82.5218 66.7769 82.0007C66.4236 81.4708 65.907 81.2059 65.227 81.2059C64.5469 81.2059 64.0259 81.4708 63.6638 82.0007C63.3106 82.5218 63.1339 83.3033 63.1339 84.3454V85.6304C63.1339 86.6725 63.3106 87.4585 63.6638 87.9884C64.0259 88.5182 64.5469 88.7832 65.227 88.7832ZM73.2864 89.7899C72.1737 89.7899 71.3391 89.4102 70.7827 88.6507C70.2352 87.8824 69.9614 86.8889 69.9614 85.6701V84.2924C69.9614 83.0737 70.2352 82.089 70.7827 81.3384C71.3391 80.5789 72.1737 80.1991 73.2864 80.1991C74.3991 80.1991 75.2293 80.5789 75.7768 81.3384C76.3244 82.089 76.5981 83.0737 76.5981 84.2924V85.6701C76.5981 86.8889 76.32 87.8824 75.7636 88.6507C75.216 89.4102 74.3903 89.7899 73.2864 89.7899ZM73.2864 88.7832C73.9576 88.7832 74.4698 88.5182 74.823 87.9884C75.1851 87.4585 75.3662 86.6725 75.3662 85.6304V84.3454C75.3662 83.3033 75.1895 82.5218 74.8363 82.0007C74.483 81.4708 73.9664 81.2059 73.2864 81.2059C72.6064 81.2059 72.0853 81.4708 71.7233 82.0007C71.37 82.5218 71.1934 83.3033 71.1934 84.3454V85.6304C71.1934 86.6725 71.37 87.4585 71.7233 87.9884C72.0853 88.5182 72.6064 88.7832 73.2864 88.7832ZM81.3458 89.7899C80.2331 89.7899 79.3985 89.4102 78.8422 88.6507C78.2946 87.8824 78.0208 86.8889 78.0208 85.6701V84.2924C78.0208 83.0737 78.2946 82.089 78.8422 81.3384C79.3985 80.5789 80.2331 80.1991 81.3458 80.1991C82.4586 80.1991 83.2887 80.5789 83.8363 81.3384C84.3838 82.089 84.6576 83.0737 84.6576 84.2924V85.6701C84.6576 86.8889 84.3794 87.8824 83.823 88.6507C83.2755 89.4102 82.4498 89.7899 81.3458 89.7899ZM81.3458 88.7832C82.017 88.7832 82.5292 88.5182 82.8825 87.9884C83.2446 87.4585 83.4256 86.6725 83.4256 85.6304V84.3454C83.4256 83.3033 83.249 82.5218 82.8957 82.0007C82.5425 81.4708 82.0258 81.2059 81.3458 81.2059C80.6658 81.2059 80.1448 81.4708 79.7827 82.0007C79.4294 82.5218 79.2528 83.3033 79.2528 84.3454V85.6304C79.2528 86.6725 79.4294 87.4585 79.7827 87.9884C80.1448 88.5182 80.6658 88.7832 81.3458 88.7832Z" fill="#384B63"/>
<path d="M37.7271 16.8521C37.1354 16.8521 36.6143 16.7373 36.1639 16.5076C35.7135 16.278 35.3558 15.9822 35.0909 15.6201C34.826 15.2492 34.6582 14.8474 34.5875 14.4146H35.7268C35.8681 14.8915 36.1198 15.2448 36.4818 15.4744C36.8439 15.704 37.2546 15.8188 37.7138 15.8188C38.3585 15.8188 38.8575 15.6157 39.2107 15.2094C39.564 14.7944 39.7406 14.2512 39.7406 13.5801C39.7406 12.8647 39.5463 12.326 39.1577 11.9639C38.7691 11.6018 38.2834 11.4208 37.7006 11.4208C37.1089 11.4208 36.685 11.5533 36.4288 11.8182C36.1816 12.0831 36.0094 12.3393 35.9122 12.5865L34.72 12.5071L34.9717 7.52619H40.244V8.58594H35.9255L35.7665 11.5665H35.8195C36.2699 10.8865 36.9764 10.5465 37.939 10.5465C38.513 10.5465 39.0208 10.6701 39.4624 10.9174C39.9128 11.1559 40.2616 11.5047 40.5089 11.9639C40.7562 12.4143 40.8798 12.9574 40.8798 13.5933C40.8798 14.2115 40.7518 14.7679 40.4957 15.2624C40.2484 15.757 39.8863 16.1456 39.4094 16.4282C38.9325 16.7108 38.3717 16.8521 37.7271 16.8521ZM45.5893 16.9315C44.4766 16.9315 43.642 16.5518 43.0857 15.7923C42.5381 15.024 42.2643 14.0305 42.2643 12.8117V11.434C42.2643 10.2153 42.5381 9.23063 43.0857 8.47997C43.642 7.72048 44.4766 7.34073 45.5893 7.34073C46.7021 7.34073 47.5322 7.72048 48.0798 8.47997C48.6273 9.23063 48.9011 10.2153 48.9011 11.434V12.8117C48.9011 14.0305 48.6229 15.024 48.0665 15.7923C47.519 16.5518 46.6933 16.9315 45.5893 16.9315ZM45.5893 15.9248C46.2605 15.9248 46.7727 15.6598 47.126 15.13C47.4881 14.6001 47.6691 13.8141 47.6691 12.772V11.487C47.6691 10.4449 47.4925 9.66337 47.1392 9.14232C46.786 8.61244 46.2694 8.3475 45.5893 8.3475C44.9093 8.3475 44.3883 8.61244 44.0262 9.14232C43.6729 9.66337 43.4963 10.4449 43.4963 11.487V12.772C43.4963 13.8141 43.6729 14.6001 44.0262 15.13C44.3883 15.6598 44.9093 15.9248 45.5893 15.9248ZM53.6488 16.9315C52.536 16.9315 51.7015 16.5518 51.1451 15.7923C50.5976 15.024 50.3238 14.0305 50.3238 12.8117V11.434C50.3238 10.2153 50.5976 9.23063 51.1451 8.47997C51.7015 7.72048 52.536 7.34073 53.6488 7.34073C54.7615 7.34073 55.5917 7.72048 56.1392 8.47997C56.6868 9.23063 56.9605 10.2153 56.9605 11.434V12.8117C56.9605 14.0305 56.6823 15.024 56.126 15.7923C55.5784 16.5518 54.7527 16.9315 53.6488 16.9315ZM53.6488 15.9248C54.32 15.9248 54.8322 15.6598 55.1854 15.13C55.5475 14.6001 55.7286 13.8141 55.7286 12.772V11.487C55.7286 10.4449 55.5519 9.66337 55.1987 9.14232C54.8454 8.61244 54.3288 8.3475 53.6488 8.3475C52.9688 8.3475 52.4477 8.61244 52.0856 9.14232C51.7324 9.66337 51.5558 10.4449 51.5558 11.487V12.772C51.5558 13.8141 51.7324 14.6001 52.0856 15.13C52.4477 15.6598 52.9688 15.9248 53.6488 15.9248ZM58.967 18.4417C59.5057 18.2033 59.7751 17.85 59.7751 17.3819C59.7751 17.1612 59.7354 17.0199 59.6559 16.958C59.5852 16.905 59.4748 16.8786 59.3247 16.8786C58.8831 16.8786 58.6624 16.6622 58.6624 16.2295C58.6624 15.991 58.733 15.8011 58.8743 15.6598C59.0244 15.5185 59.232 15.4479 59.4969 15.4479C60.1239 15.4479 60.4374 15.7879 60.4374 16.4679V16.9448C60.4374 17.4923 60.3006 17.9251 60.0268 18.243C59.7618 18.5698 59.4086 18.7994 58.967 18.9318V18.4417ZM65.4598 16.9315C64.3471 16.9315 63.5125 16.5518 62.9561 15.7923C62.4086 15.024 62.1348 14.0305 62.1348 12.8117V11.434C62.1348 10.2153 62.4086 9.23063 62.9561 8.47997C63.5125 7.72048 64.3471 7.34073 65.4598 7.34073C66.5726 7.34073 67.4027 7.72048 67.9502 8.47997C68.4978 9.23063 68.7716 10.2153 68.7716 11.434V12.8117C68.7716 14.0305 68.4934 15.024 67.937 15.7923C67.3895 16.5518 66.5637 16.9315 65.4598 16.9315ZM65.4598 15.9248C66.131 15.9248 66.6432 15.6598 66.9965 15.13C67.3585 14.6001 67.5396 13.8141 67.5396 12.772V11.487C67.5396 10.4449 67.363 9.66337 67.0097 9.14232C66.6565 8.61244 66.1398 8.3475 65.4598 8.3475C64.7798 8.3475 64.2588 8.61244 63.8967 9.14232C63.5434 9.66337 63.3668 10.4449 63.3668 11.487V12.772C63.3668 13.8141 63.5434 14.6001 63.8967 15.13C64.2588 15.6598 64.7798 15.9248 65.4598 15.9248ZM73.5193 16.9315C72.4065 16.9315 71.5719 16.5518 71.0156 15.7923C70.468 15.024 70.1943 14.0305 70.1943 12.8117V11.434C70.1943 10.2153 70.468 9.23063 71.0156 8.47997C71.5719 7.72048 72.4065 7.34073 73.5193 7.34073C74.632 7.34073 75.4621 7.72048 76.0097 8.47997C76.5572 9.23063 76.831 10.2153 76.831 11.434V12.8117C76.831 14.0305 76.5528 15.024 75.9964 15.7923C75.4489 16.5518 74.6232 16.9315 73.5193 16.9315ZM73.5193 15.9248C74.1904 15.9248 74.7027 15.6598 75.0559 15.13C75.418 14.6001 75.599 13.8141 75.599 12.772V11.487C75.599 10.4449 75.4224 9.66337 75.0692 9.14232C74.7159 8.61244 74.1993 8.3475 73.5193 8.3475C72.8392 8.3475 72.3182 8.61244 71.9561 9.14232C71.6029 9.66337 71.4262 10.4449 71.4262 11.487V12.772C71.4262 13.8141 71.6029 14.6001 71.9561 15.13C72.3182 15.6598 72.8392 15.9248 73.5193 15.9248ZM81.5787 16.9315C80.4659 16.9315 79.6314 16.5518 79.075 15.7923C78.5275 15.024 78.2537 14.0305 78.2537 12.8117V11.434C78.2537 10.2153 78.5275 9.23063 79.075 8.47997C79.6314 7.72048 80.4659 7.34073 81.5787 7.34073C82.6914 7.34073 83.5216 7.72048 84.0691 8.47997C84.6167 9.23063 84.8904 10.2153 84.8904 11.434V12.8117C84.8904 14.0305 84.6123 15.024 84.0559 15.7923C83.5083 16.5518 82.6826 16.9315 81.5787 16.9315ZM81.5787 15.9248C82.2499 15.9248 82.7621 15.6598 83.1153 15.13C83.4774 14.6001 83.6585 13.8141 83.6585 12.772V11.487C83.6585 10.4449 83.4818 9.66337 83.1286 9.14232C82.7753 8.61244 82.2587 8.3475 81.5787 8.3475C80.8987 8.3475 80.3776 8.61244 80.0156 9.14232C79.6623 9.66337 79.4857 10.4449 79.4857 11.487V12.772C79.4857 13.8141 79.6623 14.6001 80.0156 15.13C80.3776 15.6598 80.8987 15.9248 81.5787 15.9248Z" fill="#384B63"/>
<path d="M34.5345 124.62L36.76 122.62L36.9985 122.421C37.5637 121.926 38.0052 121.52 38.3232 121.202C38.6499 120.876 38.9193 120.522 39.1312 120.143C39.352 119.763 39.4624 119.365 39.4624 118.95C39.4624 118.447 39.3079 118.023 38.9988 117.679C38.6985 117.325 38.2393 117.149 37.6211 117.149C36.8881 117.149 36.3891 117.356 36.1242 117.771C35.8592 118.178 35.7268 118.628 35.7268 119.123V119.215H34.6008C34.6008 118.685 34.7023 118.191 34.9054 117.732C35.1086 117.264 35.4353 116.884 35.8857 116.592C36.345 116.292 36.9234 116.142 37.6211 116.142C38.2834 116.142 38.8354 116.274 39.2769 116.539C39.7185 116.795 40.0409 117.135 40.244 117.559C40.4559 117.974 40.5619 118.425 40.5619 118.911C40.5619 119.449 40.4427 119.948 40.2042 120.407C39.9658 120.858 39.6744 121.264 39.3299 121.626C38.9855 121.979 38.513 122.417 37.9125 122.938L36.0977 124.527V124.594H40.6546V125.614H34.5345V124.62ZM45.3435 125.746C44.2308 125.746 43.3962 125.366 42.8399 124.607C42.2923 123.838 42.0186 122.845 42.0186 121.626V120.248C42.0186 119.03 42.2923 118.045 42.8399 117.294C43.3962 116.535 44.2308 116.155 45.3435 116.155C46.4563 116.155 47.2864 116.535 47.834 117.294C48.3815 118.045 48.6553 119.03 48.6553 120.248V121.626C48.6553 122.845 48.3771 123.838 47.8207 124.607C47.2732 125.366 46.4475 125.746 45.3435 125.746ZM45.3435 124.739C46.0147 124.739 46.5269 124.474 46.8802 123.944C47.2423 123.415 47.4233 122.629 47.4233 121.586V120.301C47.4233 119.259 47.2467 118.478 46.8934 117.957C46.5402 117.427 46.0236 117.162 45.3435 117.162C44.6635 117.162 44.1425 117.427 43.7804 117.957C43.4272 118.478 43.2505 119.259 43.2505 120.301V121.586C43.2505 122.629 43.4272 123.415 43.7804 123.944C44.1425 124.474 44.6635 124.739 45.3435 124.739ZM53.403 125.746C52.2902 125.746 51.4557 125.366 50.8993 124.607C50.3518 123.838 50.078 122.845 50.078 121.626V120.248C50.078 119.03 50.3518 118.045 50.8993 117.294C51.4557 116.535 52.2902 116.155 53.403 116.155C54.5157 116.155 55.3459 116.535 55.8934 117.294C56.441 118.045 56.7147 119.03 56.7147 120.248V121.626C56.7147 122.845 56.4365 123.838 55.8802 124.607C55.3326 125.366 54.5069 125.746 53.403 125.746ZM53.403 124.739C54.0742 124.739 54.5864 124.474 54.9396 123.944C55.3017 123.415 55.4828 122.629 55.4828 121.586V120.301C55.4828 119.259 55.3061 118.478 54.9529 117.957C54.5996 117.427 54.083 117.162 53.403 117.162C52.723 117.162 52.2019 117.427 51.8398 117.957C51.4866 118.478 51.31 119.259 51.31 120.301V121.586C51.31 122.629 51.4866 123.415 51.8398 123.944C52.2019 124.474 52.723 124.739 53.403 124.739ZM58.7212 127.256C59.2599 127.018 59.5293 126.664 59.5293 126.196C59.5293 125.976 59.4896 125.834 59.4101 125.772C59.3394 125.72 59.229 125.693 59.0789 125.693C58.6373 125.693 58.4166 125.477 58.4166 125.044C58.4166 124.805 58.4872 124.616 58.6285 124.474C58.7786 124.333 58.9862 124.262 59.2511 124.262C59.8781 124.262 60.1917 124.602 60.1917 125.282V125.759C60.1917 126.307 60.0548 126.74 59.781 127.057C59.5161 127.384 59.1628 127.614 58.7212 127.746V127.256ZM65.214 125.746C64.1013 125.746 63.2667 125.366 62.7103 124.607C62.1628 123.838 61.889 122.845 61.889 121.626V120.248C61.889 119.03 62.1628 118.045 62.7103 117.294C63.2667 116.535 64.1013 116.155 65.214 116.155C66.3268 116.155 67.1569 116.535 67.7044 117.294C68.252 118.045 68.5258 119.03 68.5258 120.248V121.626C68.5258 122.845 68.2476 123.838 67.6912 124.607C67.1437 125.366 66.3179 125.746 65.214 125.746ZM65.214 124.739C65.8852 124.739 66.3974 124.474 66.7507 123.944C67.1128 123.415 67.2938 122.629 67.2938 121.586V120.301C67.2938 119.259 67.1172 118.478 66.7639 117.957C66.4107 117.427 65.894 117.162 65.214 117.162C64.534 117.162 64.013 117.427 63.6509 117.957C63.2976 118.478 63.121 119.259 63.121 120.301V121.586C63.121 122.629 63.2976 123.415 63.6509 123.944C64.013 124.474 64.534 124.739 65.214 124.739ZM73.2735 125.746C72.1607 125.746 71.3262 125.366 70.7698 124.607C70.2222 123.838 69.9485 122.845 69.9485 121.626V120.248C69.9485 119.03 70.2222 118.045 70.7698 117.294C71.3262 116.535 72.1607 116.155 73.2735 116.155C74.3862 116.155 75.2163 116.535 75.7639 117.294C76.3114 118.045 76.5852 119.03 76.5852 120.248V121.626C76.5852 122.845 76.307 123.838 75.7506 124.607C75.2031 125.366 74.3774 125.746 73.2735 125.746ZM73.2735 124.739C73.9446 124.739 74.4569 124.474 74.8101 123.944C75.1722 123.415 75.3532 122.629 75.3532 121.586V120.301C75.3532 119.259 75.1766 118.478 74.8234 117.957C74.4701 117.427 73.9535 117.162 73.2735 117.162C72.5934 117.162 72.0724 117.427 71.7103 117.957C71.3571 118.478 71.1804 119.259 71.1804 120.301V121.586C71.1804 122.629 71.3571 123.415 71.7103 123.944C72.0724 124.474 72.5934 124.739 73.2735 124.739ZM81.3329 125.746C80.2202 125.746 79.3856 125.366 78.8292 124.607C78.2817 123.838 78.0079 122.845 78.0079 121.626V120.248C78.0079 119.03 78.2817 118.045 78.8292 117.294C79.3856 116.535 80.2202 116.155 81.3329 116.155C82.4456 116.155 83.2758 116.535 83.8233 117.294C84.3709 118.045 84.6446 119.03 84.6446 120.248V121.626C84.6446 122.845 84.3665 123.838 83.8101 124.607C83.2625 125.366 82.4368 125.746 81.3329 125.746ZM81.3329 124.739C82.0041 124.739 82.5163 124.474 82.8696 123.944C83.2316 123.415 83.4127 122.629 83.4127 121.586V120.301C83.4127 119.259 83.2361 118.478 82.8828 117.957C82.5295 117.427 82.0129 117.162 81.3329 117.162C80.6529 117.162 80.1318 117.427 79.7698 117.957C79.4165 118.478 79.2399 119.259 79.2399 120.301V121.586C79.2399 122.629 79.4165 123.415 79.7698 123.944C80.1318 124.474 80.6529 124.739 81.3329 124.739Z" fill="#384B63"/>
<path d="M39.5684 160.55V161.57H34.8657V160.55H36.7468V153.661H36.6938L34.8392 155.41V154.046L36.6938 152.297H37.8198V160.55H39.5684ZM44.1275 161.702C43.0148 161.702 42.1802 161.323 41.6238 160.563C41.0763 159.795 40.8025 158.801 40.8025 157.582V156.205C40.8025 154.986 41.0763 154.001 41.6238 153.251C42.1802 152.491 43.0148 152.111 44.1275 152.111C45.2403 152.111 46.0704 152.491 46.6179 153.251C47.1655 154.001 47.4393 154.986 47.4393 156.205V157.582C47.4393 158.801 47.1611 159.795 46.6047 160.563C46.0572 161.323 45.2314 161.702 44.1275 161.702ZM44.1275 160.696C44.7987 160.696 45.3109 160.431 45.6642 159.901C46.0263 159.371 46.2073 158.585 46.2073 157.543V156.258C46.2073 155.216 46.0307 154.434 45.6774 153.913C45.3242 153.383 44.8075 153.118 44.1275 153.118C43.4475 153.118 42.9265 153.383 42.5644 153.913C42.2111 154.434 42.0345 155.216 42.0345 156.258V157.543C42.0345 158.585 42.2111 159.371 42.5644 159.901C42.9265 160.431 43.4475 160.696 44.1275 160.696ZM52.187 161.702C51.0742 161.702 50.2397 161.323 49.6833 160.563C49.1357 159.795 48.862 158.801 48.862 157.582V156.205C48.862 154.986 49.1357 154.001 49.6833 153.251C50.2397 152.491 51.0742 152.111 52.187 152.111C53.2997 152.111 54.1298 152.491 54.6774 153.251C55.2249 154.001 55.4987 154.986 55.4987 156.205V157.582C55.4987 158.801 55.2205 159.795 54.6641 160.563C54.1166 161.323 53.2909 161.702 52.187 161.702ZM52.187 160.696C52.8581 160.696 53.3704 160.431 53.7236 159.901C54.0857 159.371 54.2667 158.585 54.2667 157.543V156.258C54.2667 155.216 54.0901 154.434 53.7369 153.913C53.3836 153.383 52.867 153.118 52.187 153.118C51.5069 153.118 50.9859 153.383 50.6238 153.913C50.2706 154.434 50.0939 155.216 50.0939 156.258V157.543C50.0939 158.585 50.2706 159.371 50.6238 159.901C50.9859 160.431 51.5069 160.696 52.187 160.696ZM57.5052 163.212C58.0439 162.974 58.3133 162.621 58.3133 162.153C58.3133 161.932 58.2735 161.791 58.194 161.729C58.1234 161.676 58.013 161.649 57.8629 161.649C57.4213 161.649 57.2005 161.433 57.2005 161C57.2005 160.762 57.2712 160.572 57.4125 160.431C57.5626 160.289 57.7701 160.219 58.0351 160.219C58.6621 160.219 58.9756 160.559 58.9756 161.239V161.716C58.9756 162.263 58.8387 162.696 58.565 163.014C58.3 163.341 57.9468 163.57 57.5052 163.703V163.212ZM63.998 161.702C62.8852 161.702 62.0507 161.323 61.4943 160.563C60.9468 159.795 60.673 158.801 60.673 157.582V156.205C60.673 154.986 60.9468 154.001 61.4943 153.251C62.0507 152.491 62.8852 152.111 63.998 152.111C65.1107 152.111 65.9409 152.491 66.4884 153.251C67.036 154.001 67.3097 154.986 67.3097 156.205V157.582C67.3097 158.801 67.0315 159.795 66.4752 160.563C65.9276 161.323 65.1019 161.702 63.998 161.702ZM63.998 160.696C64.6692 160.696 65.1814 160.431 65.5346 159.901C65.8967 159.371 66.0778 158.585 66.0778 157.543V156.258C66.0778 155.216 65.9011 154.434 65.5479 153.913C65.1946 153.383 64.678 153.118 63.998 153.118C63.318 153.118 62.7969 153.383 62.4348 153.913C62.0816 154.434 61.905 155.216 61.905 156.258V157.543C61.905 158.585 62.0816 159.371 62.4348 159.901C62.7969 160.431 63.318 160.696 63.998 160.696ZM72.0574 161.702C70.9447 161.702 70.1101 161.323 69.5537 160.563C69.0062 159.795 68.7324 158.801 68.7324 157.582V156.205C68.7324 154.986 69.0062 154.001 69.5537 153.251C70.1101 152.491 70.9447 152.111 72.0574 152.111C73.1702 152.111 74.0003 152.491 74.5479 153.251C75.0954 154.001 75.3692 154.986 75.3692 156.205V157.582C75.3692 158.801 75.091 159.795 74.5346 160.563C73.9871 161.323 73.1613 161.702 72.0574 161.702ZM72.0574 160.696C72.7286 160.696 73.2408 160.431 73.5941 159.901C73.9562 159.371 74.1372 158.585 74.1372 157.543V156.258C74.1372 155.216 73.9606 154.434 73.6073 153.913C73.2541 153.383 72.7374 153.118 72.0574 153.118C71.3774 153.118 70.8564 153.383 70.4943 153.913C70.141 154.434 69.9644 155.216 69.9644 156.258V157.543C69.9644 158.585 70.141 159.371 70.4943 159.901C70.8564 160.431 71.3774 160.696 72.0574 160.696ZM80.1169 161.702C79.0041 161.702 78.1696 161.323 77.6132 160.563C77.0656 159.795 76.7919 158.801 76.7919 157.582V156.205C76.7919 154.986 77.0656 154.001 77.6132 153.251C78.1696 152.491 79.0041 152.111 80.1169 152.111C81.2296 152.111 82.0598 152.491 82.6073 153.251C83.1548 154.001 83.4286 154.986 83.4286 156.205V157.582C83.4286 158.801 83.1504 159.795 82.5941 160.563C82.0465 161.323 81.2208 161.702 80.1169 161.702ZM80.1169 160.696C80.788 160.696 81.3003 160.431 81.6535 159.901C82.0156 159.371 82.1966 158.585 82.1966 157.543V156.258C82.1966 155.216 82.02 154.434 81.6668 153.913C81.3135 153.383 80.7969 153.118 80.1169 153.118C79.4369 153.118 78.9158 153.383 78.5537 153.913C78.2005 154.434 78.0238 155.216 78.0238 156.258V157.543C78.0238 158.585 78.2005 159.371 78.5537 159.901C78.9158 160.431 79.4369 160.696 80.1169 160.696Z" fill="#384B63"/>
<path d="M81.1205 198.604C80.0077 198.604 79.1732 198.225 78.6168 197.465C78.0692 196.697 77.7955 195.703 77.7955 194.485V193.107C77.7955 191.888 78.0692 190.903 78.6168 190.153C79.1732 189.393 80.0077 189.014 81.1205 189.014C82.2332 189.014 83.0634 189.393 83.6109 190.153C84.1584 190.903 84.4322 191.888 84.4322 193.107V194.485C84.4322 195.703 84.154 196.697 83.5976 197.465C83.0501 198.225 82.2244 198.604 81.1205 198.604ZM81.1205 197.598C81.7916 197.598 82.3039 197.333 82.6571 196.803C83.0192 196.273 83.2002 195.487 83.2002 194.445V193.16C83.2002 192.118 83.0236 191.336 82.6704 190.815C82.3171 190.285 81.8005 190.02 81.1205 190.02C80.4404 190.02 79.9194 190.285 79.5573 190.815C79.2041 191.336 79.0274 192.118 79.0274 193.16V194.445C79.0274 195.487 79.2041 196.273 79.5573 196.803C79.9194 197.333 80.4404 197.598 81.1205 197.598Z" fill="#384B63"/>
<path d="M8.23694 121.661L11.297 121.661L11.2705 117.78L12.211 117.78L12.211 121.661L16.4766 121.661L16.4766 122.813L7.20368 122.813L7.20368 117.276L8.23694 117.276L8.23694 121.661ZM16.5693 113.21C16.5693 113.926 16.3971 114.531 16.0527 115.025C15.7082 115.511 15.2578 115.873 14.7015 116.111C14.1451 116.35 13.5578 116.469 12.9396 116.469C12.3126 116.469 11.7253 116.35 11.1778 116.111C10.6214 115.873 10.171 115.506 9.82658 115.012C9.48216 114.517 9.30995 113.912 9.30995 113.197C9.30995 112.261 9.62346 111.515 10.2505 110.958C10.8775 110.393 11.7783 110.11 12.9529 110.11L13.2708 110.11L13.2708 115.33L13.3635 115.33C13.7521 115.33 14.1186 115.241 14.463 115.065C14.8074 114.888 15.0856 114.641 15.2976 114.323C15.5095 114.005 15.6155 113.639 15.6155 113.223C15.6155 112.773 15.5007 112.385 15.2711 112.058C15.0415 111.731 14.7324 111.488 14.3438 111.329L14.3438 110.203C14.9797 110.389 15.5095 110.737 15.9334 111.25C16.3573 111.753 16.5693 112.407 16.5693 113.21ZM12.4627 111.236C11.6679 111.272 11.0939 111.466 10.7406 111.819C10.3874 112.173 10.2107 112.636 10.2107 113.21C10.2107 113.837 10.4183 114.336 10.8333 114.707C11.2484 115.078 11.7915 115.277 12.4627 115.303L12.4627 111.236ZM16.5693 105.845C16.5693 106.463 16.4103 106.993 16.0924 107.434C15.7745 107.867 15.3417 108.198 14.7942 108.428C14.2467 108.658 13.6285 108.772 12.9396 108.772C12.2419 108.772 11.6193 108.658 11.0718 108.428C10.5243 108.198 10.0959 107.863 9.78684 107.421C9.46891 106.98 9.30995 106.445 9.30995 105.818C9.30995 105.2 9.46008 104.701 9.76034 104.321C10.0518 103.933 10.3962 103.646 10.7936 103.46L10.7936 103.354L6.54133 103.354L6.54133 102.215L16.4766 102.215L16.4766 103.354L15.0459 103.354L15.0459 103.46C15.4698 103.672 15.8319 103.973 16.1321 104.361C16.4236 104.741 16.5693 105.235 16.5693 105.845ZM15.589 105.5C15.589 104.812 15.3373 104.286 14.8339 103.924C14.3217 103.562 13.6903 103.381 12.9396 103.381C12.189 103.381 11.5619 103.562 11.0585 103.924C10.5552 104.286 10.3035 104.812 10.3035 105.5C10.3035 106.198 10.5552 106.724 11.0585 107.077C11.5619 107.43 12.189 107.607 12.9396 107.607C13.6991 107.607 14.3306 107.43 14.8339 107.077C15.3373 106.715 15.589 106.189 15.589 105.5ZM16.5693 97.6431C16.5693 98.2613 16.4103 98.7911 16.0924 99.2327C15.7745 99.6654 15.3417 99.9966 14.7942 100.226C14.2467 100.456 13.6285 100.571 12.9396 100.571C12.2419 100.571 11.6193 100.456 11.0718 100.226C10.5243 99.9966 10.0959 99.661 9.78684 99.2195C9.46891 98.7779 9.30995 98.2436 9.30995 97.6166C9.30995 96.9984 9.46008 96.4994 9.76034 96.1197C10.0518 95.7311 10.3962 95.4441 10.7936 95.2586L10.7936 95.1526L6.54133 95.1526L6.54133 94.0134L16.4766 94.0134L16.4766 95.1526L15.0459 95.1526L15.0459 95.2586C15.4698 95.4706 15.8319 95.7708 16.1321 96.1594C16.4236 96.5391 16.5693 97.0337 16.5693 97.6431ZM15.589 97.2986C15.589 96.6098 15.3373 96.0843 14.8339 95.7223C14.3217 95.3602 13.6903 95.1791 12.9396 95.1791C12.189 95.1791 11.5619 95.3602 11.0585 95.7223C10.5552 96.0843 10.3035 96.6098 10.3035 97.2986C10.3035 97.9963 10.5552 98.5218 11.0585 98.875C11.5619 99.2283 12.189 99.4049 12.9396 99.4049C13.6991 99.4049 14.3306 99.2283 14.8339 98.875C15.3373 98.5129 15.589 97.9875 15.589 97.2986ZM16.5693 89.4678C16.5693 90.086 16.4103 90.6159 16.0924 91.0575C15.7745 91.4902 15.3417 91.8214 14.7942 92.051C14.2467 92.2806 13.6285 92.3954 12.9396 92.3954C12.2508 92.3954 11.6326 92.2806 11.085 92.051C10.5287 91.8125 10.0959 91.4725 9.78684 91.031C9.46891 90.5806 9.30994 90.0463 9.30994 89.4281C9.30994 88.8099 9.45566 88.3109 9.7471 87.9312C10.0385 87.5514 10.3874 87.2644 10.7936 87.0701L10.7936 86.9774L9.4954 86.9774L9.4954 85.8249L16.4766 85.8249L16.4766 86.9774L15.0459 86.9774L15.0459 87.0701C15.461 87.2821 15.8186 87.5823 16.1189 87.9709C16.4192 88.3595 16.5693 88.8585 16.5693 89.4678ZM15.589 89.1101C15.589 88.4301 15.3373 87.9091 14.8339 87.547C14.3217 87.1849 13.6903 87.0039 12.9396 87.0039C12.189 87.0039 11.5619 87.1849 11.0585 87.547C10.5463 87.9091 10.2902 88.4301 10.2902 89.1101C10.2902 89.8078 10.5419 90.3377 11.0453 90.6998C11.5487 91.053 12.1757 91.2297 12.9264 91.2297C13.6859 91.2297 14.3217 91.053 14.8339 90.6998C15.3373 90.3377 15.589 89.8078 15.589 89.1101ZM9.4954 83.8098L9.4954 82.6706L10.7539 82.6706L10.7539 82.5646C10.3476 82.388 10.0076 82.1009 9.73385 81.7035C9.45125 81.3061 9.30994 80.8204 9.30994 80.2464C9.30994 79.6547 9.45125 79.1601 9.73385 78.7627C10.0076 78.3653 10.3741 78.0739 10.8333 77.8884C11.2837 77.6941 11.7739 77.597 12.3038 77.597L16.4766 77.597L16.4766 78.7362L12.4495 78.7362C11.7606 78.7362 11.2352 78.9173 10.8731 79.2793C10.511 79.6326 10.33 80.0962 10.33 80.6703C10.33 81.2796 10.5287 81.7654 10.9261 82.1274C11.3147 82.4895 11.8225 82.6706 12.4495 82.6706L16.4766 82.6706L16.4766 83.8098L9.4954 83.8098ZM16.5693 73.3142C16.5693 73.8794 16.4589 74.3695 16.2381 74.7846C16.0085 75.1996 15.7171 75.5176 15.3638 75.7384C15.0106 75.9503 14.6396 76.0563 14.2511 76.0563L14.1848 76.0563L14.1848 74.917L14.2378 74.917C14.4586 74.917 14.6794 74.8552 14.9002 74.7316C15.1121 74.6079 15.2887 74.4225 15.43 74.1752C15.5625 73.9279 15.6288 73.6277 15.6288 73.2744C15.6288 72.8505 15.5272 72.5017 15.3241 72.2279C15.1121 71.9453 14.8251 71.804 14.463 71.804C14.1628 71.804 13.9243 71.9144 13.7477 72.1352C13.5711 72.3471 13.4562 72.6165 13.4033 72.9432L13.2708 73.8573C13.1825 74.4313 12.9882 74.9126 12.6879 75.3012C12.3788 75.6898 11.9328 75.8841 11.35 75.8841C10.7053 75.8841 10.2063 75.6545 9.85307 75.1952C9.49099 74.7272 9.30994 74.1311 9.30994 73.4069C9.30994 72.8682 9.4115 72.4089 9.61462 72.0292C9.80891 71.6406 10.0694 71.3448 10.3962 71.1417C10.7141 70.9385 11.063 70.837 11.4427 70.837L11.4957 70.837L11.4957 71.9762L11.4692 71.9762C11.2926 71.9762 11.1071 72.0248 10.9128 72.1219C10.7185 72.2102 10.5507 72.3648 10.4094 72.5856C10.2681 72.8064 10.1975 73.089 10.1975 73.4334C10.1975 73.8573 10.3035 74.1973 10.5154 74.4534C10.7185 74.7095 10.9879 74.8376 11.3235 74.8376C11.5973 74.8376 11.8225 74.736 11.9991 74.5329C12.1757 74.3298 12.2905 74.0737 12.3435 73.7646L12.5025 72.771C12.5996 72.1882 12.8027 71.698 13.1118 71.3006C13.4121 70.9032 13.8581 70.7045 14.4498 70.7045C14.8737 70.7045 15.2446 70.8193 15.5625 71.0489C15.8804 71.2697 16.1277 71.5788 16.3043 71.9762C16.481 72.3736 16.5693 72.8196 16.5693 73.3142Z" fill="#384B63"/>
<path d="M301.058 244.85V241.485L298.038 235.564H299.283L301.588 240.2H301.681L303.972 235.564H305.218L302.211 241.485V244.836L301.058 244.85ZM308.3 244.929C307.585 244.929 306.98 244.757 306.486 244.413C306 244.068 305.638 243.618 305.399 243.061C305.161 242.505 305.042 241.918 305.042 241.299C305.042 240.672 305.161 240.085 305.399 239.538C305.638 238.981 306.004 238.531 306.499 238.186C306.993 237.842 307.598 237.67 308.314 237.67C309.25 237.67 309.996 237.983 310.552 238.61C311.118 239.237 311.4 240.138 311.4 241.313V241.631H306.181V241.723C306.181 242.112 306.269 242.478 306.446 242.823C306.623 243.167 306.87 243.445 307.188 243.657C307.506 243.869 307.872 243.975 308.287 243.975C308.738 243.975 309.126 243.861 309.453 243.631C309.78 243.401 310.023 243.092 310.182 242.704H311.308C311.122 243.34 310.773 243.869 310.261 244.293C309.758 244.717 309.104 244.929 308.3 244.929ZM310.274 240.823C310.239 240.028 310.045 239.454 309.691 239.1C309.338 238.747 308.875 238.571 308.3 238.571C307.673 238.571 307.174 238.778 306.804 239.193C306.433 239.608 306.234 240.151 306.207 240.823H310.274ZM315.639 244.929C315.021 244.929 314.491 244.77 314.05 244.452C313.617 244.134 313.286 243.702 313.056 243.154C312.827 242.607 312.712 241.988 312.712 241.299C312.712 240.611 312.827 239.992 313.056 239.445C313.295 238.889 313.635 238.456 314.076 238.147C314.527 237.829 315.061 237.67 315.679 237.67C316.297 237.67 316.796 237.816 317.176 238.107C317.556 238.398 317.843 238.747 318.037 239.153H318.13V237.855H319.282V244.836H318.13V243.406H318.037C317.825 243.821 317.525 244.178 317.136 244.479C316.748 244.779 316.249 244.929 315.639 244.929ZM315.997 243.949C316.677 243.949 317.198 243.697 317.56 243.194C317.922 242.682 318.103 242.05 318.103 241.299C318.103 240.549 317.922 239.922 317.56 239.418C317.198 238.906 316.677 238.65 315.997 238.65C315.299 238.65 314.77 238.902 314.407 239.405C314.054 239.909 313.878 240.536 313.878 241.286C313.878 242.046 314.054 242.682 314.407 243.194C314.77 243.697 315.299 243.949 315.997 243.949ZM321.244 237.855H322.384V238.968H322.463C322.578 238.659 322.781 238.398 323.073 238.186C323.373 237.966 323.748 237.855 324.199 237.855C324.34 237.855 324.45 237.864 324.53 237.882C324.618 237.891 324.715 237.913 324.821 237.948L324.781 239.061C324.64 239.017 324.516 238.986 324.41 238.968C324.313 238.95 324.185 238.942 324.026 238.942C322.931 238.942 322.384 239.591 322.384 240.889V244.836H321.244V237.855Z" fill="#384B63"/>
<path d="M203.356 212.428L202.635 213.15L199.31 209.824L200.031 209.103L201.361 210.433L206.232 205.562L206.194 205.525L203.647 205.45L204.611 204.485L207.159 204.56L207.955 205.356L202.12 211.192L203.356 212.428ZM210.196 214.547L210.177 214.509L209.849 214.519C209.15 214.531 208.531 214.269 207.994 213.732C207.607 213.345 207.345 212.908 207.208 212.42C207.076 211.94 207.08 211.449 207.217 210.95C207.367 210.45 207.654 209.988 208.079 209.564C208.535 209.108 209.022 208.814 209.54 208.683C210.071 208.552 210.586 208.568 211.086 208.73C211.591 208.898 212.047 209.186 212.453 209.592C212.834 209.973 213.115 210.416 213.296 210.922C213.483 211.421 213.515 211.952 213.39 212.514C213.265 213.076 212.943 213.616 212.425 214.135C212.05 214.509 211.641 214.812 211.198 215.043C210.755 215.274 210.302 215.452 209.84 215.577C209.384 215.696 208.831 215.818 208.182 215.942L205.887 216.401L204.988 215.521L210.196 214.547ZM208.828 213.31C209.122 213.604 209.443 213.788 209.793 213.863C210.149 213.944 210.495 213.929 210.833 213.816C211.182 213.704 211.491 213.513 211.76 213.245C212.028 212.976 212.216 212.67 212.322 212.327C212.441 211.983 212.459 211.634 212.378 211.278C212.297 210.922 212.11 210.597 211.816 210.304C211.51 209.998 211.176 209.801 210.814 209.713C210.458 209.632 210.105 209.648 209.755 209.76C209.418 209.873 209.118 210.06 208.856 210.322C208.6 210.578 208.413 210.878 208.294 211.221C208.182 211.571 208.166 211.93 208.247 212.299C208.329 212.667 208.522 213.004 208.828 213.31ZM215.721 220.072L215.702 220.034L215.374 220.044C214.675 220.056 214.057 219.794 213.52 219.257C213.132 218.87 212.87 218.433 212.733 217.946C212.602 217.465 212.605 216.975 212.742 216.475C212.892 215.975 213.179 215.513 213.604 215.089C214.06 214.633 214.547 214.339 215.065 214.208C215.596 214.077 216.111 214.093 216.611 214.255C217.116 214.424 217.572 214.711 217.978 215.117C218.359 215.498 218.64 215.941 218.821 216.447C219.009 216.946 219.04 217.477 218.915 218.039C218.79 218.601 218.468 219.141 217.95 219.66C217.575 220.034 217.166 220.337 216.723 220.568C216.28 220.799 215.827 220.977 215.365 221.102C214.909 221.221 214.356 221.343 213.707 221.468L211.412 221.927L210.513 221.046L215.721 220.072ZM214.353 218.835C214.647 219.129 214.968 219.313 215.318 219.388C215.674 219.469 216.021 219.454 216.358 219.341C216.707 219.229 217.017 219.038 217.285 218.77C217.554 218.501 217.741 218.195 217.847 217.852C217.966 217.508 217.984 217.159 217.903 216.803C217.822 216.447 217.635 216.122 217.341 215.829C217.035 215.523 216.701 215.326 216.339 215.238C215.983 215.157 215.63 215.173 215.281 215.285C214.943 215.398 214.644 215.585 214.381 215.847C214.125 216.103 213.938 216.403 213.819 216.747C213.707 217.096 213.691 217.455 213.772 217.824C213.854 218.192 214.047 218.529 214.353 218.835ZM216.815 227.517C216.028 226.73 215.707 225.872 215.85 224.941C216.007 224.011 216.515 223.115 217.377 222.253L218.351 221.279C219.213 220.417 220.103 219.914 221.021 219.771C221.951 219.627 222.81 219.949 223.597 220.735C224.384 221.522 224.702 222.378 224.552 223.302C224.409 224.22 223.906 225.11 223.044 225.972L222.07 226.946C221.208 227.808 220.309 228.313 219.372 228.463C218.448 228.613 217.596 228.298 216.815 227.517ZM217.527 226.805C218.002 227.28 218.551 227.455 219.176 227.33C219.806 227.211 220.49 226.783 221.227 226.047L222.136 225.138C222.873 224.401 223.3 223.724 223.419 223.105C223.544 222.481 223.366 221.928 222.885 221.447C222.404 220.967 221.848 220.785 221.218 220.904C220.6 221.023 219.922 221.45 219.185 222.187L218.276 223.096C217.54 223.833 217.109 224.514 216.984 225.138C216.865 225.769 217.046 226.324 217.527 226.805Z" fill="#384B63"/>
<path d="M315.216 207.942L318.204 208.101L318.513 208.129C319.263 208.179 319.862 208.204 320.312 208.204C320.774 208.204 321.214 208.144 321.632 208.026C322.057 207.913 322.416 207.71 322.71 207.417C323.066 207.061 323.256 206.652 323.281 206.19C323.318 205.728 323.119 205.278 322.682 204.841C322.163 204.323 321.664 204.117 321.183 204.223C320.708 204.323 320.296 204.548 319.946 204.897L319.881 204.963L319.085 204.167C319.459 203.792 319.881 203.514 320.349 203.333C320.824 203.146 321.323 203.108 321.848 203.221C322.385 203.333 322.9 203.636 323.393 204.129C323.862 204.597 324.158 205.081 324.283 205.581C324.414 206.074 324.402 206.543 324.246 206.986C324.102 207.429 323.859 207.823 323.515 208.166C323.134 208.547 322.697 208.816 322.204 208.972C321.717 209.122 321.223 209.203 320.724 209.215C320.23 209.222 319.587 209.197 318.794 209.141L316.387 208.981L316.34 209.028L319.562 212.25L318.841 212.972L314.513 208.644L315.216 207.942ZM322.063 216.381C321.276 215.594 320.954 214.735 321.098 213.805C321.254 212.874 321.763 211.978 322.625 211.117L323.599 210.142C324.461 209.281 325.351 208.778 326.269 208.634C327.199 208.491 328.058 208.812 328.845 209.599C329.631 210.386 329.95 211.241 329.8 212.166C329.656 213.084 329.154 213.974 328.292 214.835L327.318 215.809C326.456 216.671 325.557 217.177 324.62 217.327C323.696 217.477 322.844 217.161 322.063 216.381ZM322.775 215.669C323.249 216.144 323.799 216.318 324.423 216.194C325.054 216.075 325.738 215.647 326.475 214.91L327.383 214.002C328.12 213.265 328.548 212.587 328.667 211.969C328.792 211.345 328.614 210.792 328.133 210.311C327.652 209.83 327.096 209.649 326.465 209.768C325.847 209.886 325.17 210.314 324.433 211.051L323.524 211.96C322.787 212.696 322.356 213.377 322.232 214.002C322.113 214.632 322.294 215.188 322.775 215.669ZM327.762 222.08C326.975 221.293 326.653 220.434 326.797 219.504C326.953 218.573 327.462 217.677 328.324 216.815L329.298 215.841C330.16 214.98 331.05 214.477 331.968 214.333C332.898 214.19 333.757 214.511 334.544 215.298C335.33 216.085 335.649 216.94 335.499 217.865C335.355 218.783 334.853 219.672 333.991 220.534L333.017 221.508C332.155 222.37 331.256 222.876 330.319 223.026C329.395 223.176 328.542 222.86 327.762 222.08ZM328.474 221.368C328.948 221.842 329.498 222.017 330.122 221.892C330.753 221.774 331.437 221.346 332.174 220.609L333.082 219.701C333.819 218.964 334.247 218.286 334.366 217.668C334.49 217.043 334.312 216.491 333.832 216.01C333.351 215.529 332.795 215.348 332.164 215.467C331.546 215.585 330.869 216.013 330.132 216.75L329.223 217.658C328.486 218.395 328.055 219.076 327.93 219.701C327.812 220.331 327.993 220.887 328.474 221.368ZM333.461 227.779C332.674 226.992 332.352 226.133 332.496 225.203C332.652 224.272 333.161 223.376 334.023 222.514L334.997 221.54C335.859 220.678 336.749 220.176 337.666 220.032C338.597 219.888 339.456 220.21 340.242 220.997C341.029 221.784 341.348 222.639 341.198 223.563C341.054 224.481 340.552 225.371 339.69 226.233L338.716 227.207C337.854 228.069 336.955 228.575 336.018 228.725C335.094 228.875 334.241 228.559 333.461 227.779ZM334.173 227.067C334.647 227.541 335.197 227.716 335.821 227.591C336.452 227.473 337.136 227.045 337.873 226.308L338.781 225.399C339.518 224.663 339.946 223.985 340.064 223.367C340.189 222.742 340.011 222.19 339.531 221.709C339.05 221.228 338.494 221.047 337.863 221.165C337.245 221.284 336.567 221.712 335.831 222.449L334.922 223.357C334.185 224.094 333.754 224.775 333.629 225.399C333.511 226.03 333.692 226.586 334.173 227.067Z" fill="#384B63"/>
<path d="M427.815 208.888L430.803 209.047L431.113 209.075C431.862 209.125 432.461 209.15 432.911 209.15C433.373 209.15 433.813 209.091 434.232 208.972C434.656 208.859 435.015 208.657 435.309 208.363C435.665 208.007 435.855 207.598 435.88 207.136C435.918 206.674 435.718 206.224 435.281 205.787C434.763 205.269 434.263 205.063 433.782 205.169C433.308 205.269 432.895 205.494 432.546 205.843L432.48 205.909L431.684 205.113C432.059 204.738 432.48 204.46 432.948 204.279C433.423 204.092 433.923 204.054 434.447 204.167C434.984 204.279 435.499 204.582 435.993 205.075C436.461 205.544 436.758 206.028 436.883 206.527C437.014 207.02 437.001 207.489 436.845 207.932C436.702 208.376 436.458 208.769 436.115 209.112C435.734 209.493 435.296 209.762 434.803 209.918C434.316 210.068 433.823 210.149 433.323 210.161C432.83 210.168 432.187 210.143 431.394 210.087L428.986 209.927L428.939 209.974L432.162 213.196L431.44 213.918L427.113 209.59L427.815 208.888ZM434.662 217.327C433.875 216.54 433.554 215.681 433.697 214.751C433.854 213.821 434.363 212.924 435.224 212.063L436.198 211.088C437.06 210.227 437.95 209.724 438.868 209.58C439.799 209.437 440.657 209.758 441.444 210.545C442.231 211.332 442.549 212.188 442.399 213.112C442.256 214.03 441.753 214.92 440.891 215.781L439.917 216.756C439.055 217.617 438.156 218.123 437.219 218.273C436.295 218.423 435.443 218.107 434.662 217.327ZM435.374 216.615C435.849 217.09 436.398 217.264 437.023 217.14C437.653 217.021 438.337 216.593 439.074 215.856L439.983 214.948C440.72 214.211 441.147 213.533 441.266 212.915C441.391 212.291 441.213 211.738 440.732 211.257C440.251 210.776 439.696 210.595 439.065 210.714C438.447 210.832 437.769 211.26 437.032 211.997L436.124 212.906C435.387 213.643 434.956 214.323 434.831 214.948C434.712 215.578 434.893 216.134 435.374 216.615ZM442.544 223.579L441.823 224.3L438.498 220.975L439.219 220.254L440.549 221.584L445.42 216.713L445.383 216.676L442.835 216.601L443.8 215.636L446.347 215.711L447.144 216.507L441.308 222.343L442.544 223.579ZM444.953 227.618C444.166 226.831 443.845 225.972 443.988 225.042C444.145 224.111 444.653 223.215 445.515 222.354L446.489 221.379C447.351 220.518 448.241 220.015 449.159 219.871C450.089 219.728 450.948 220.049 451.735 220.836C452.522 221.623 452.84 222.478 452.69 223.403C452.547 224.321 452.044 225.21 451.182 226.072L450.208 227.046C449.346 227.908 448.447 228.414 447.51 228.564C446.586 228.714 445.734 228.398 444.953 227.618ZM445.665 226.906C446.14 227.381 446.689 227.555 447.314 227.43C447.944 227.312 448.628 226.884 449.365 226.147L450.274 225.239C451.011 224.502 451.438 223.824 451.557 223.206C451.682 222.581 451.504 222.029 451.023 221.548C450.542 221.067 449.986 220.886 449.356 221.005C448.737 221.123 448.06 221.551 447.323 222.288L446.414 223.197C445.678 223.933 445.247 224.614 445.122 225.239C445.003 225.869 445.184 226.425 445.665 226.906Z" fill="#384B63"/>
<path d="M512.975 208.888L515.963 209.047L516.272 209.075C517.021 209.125 517.621 209.15 518.07 209.15C518.532 209.15 518.973 209.091 519.391 208.972C519.816 208.859 520.175 208.657 520.468 208.363C520.824 208.007 521.015 207.598 521.04 207.136C521.077 206.674 520.877 206.224 520.44 205.787C519.922 205.269 519.422 205.063 518.941 205.169C518.467 205.269 518.055 205.494 517.705 205.843L517.639 205.909L516.843 205.113C517.218 204.738 517.639 204.46 518.108 204.279C518.582 204.092 519.082 204.054 519.606 204.167C520.143 204.279 520.659 204.582 521.152 205.075C521.62 205.544 521.917 206.028 522.042 206.527C522.173 207.02 522.16 207.489 522.004 207.932C521.861 208.376 521.617 208.769 521.274 209.112C520.893 209.493 520.456 209.762 519.962 209.918C519.475 210.068 518.982 210.149 518.482 210.161C517.989 210.168 517.346 210.143 516.553 210.087L514.145 209.927L514.099 209.974L517.321 213.196L516.6 213.918L512.272 209.59L512.975 208.888ZM519.821 217.327C519.035 216.54 518.713 215.681 518.857 214.751C519.013 213.821 519.522 212.924 520.383 212.063L521.358 211.088C522.219 210.227 523.109 209.724 524.027 209.58C524.958 209.437 525.816 209.758 526.603 210.545C527.39 211.332 527.709 212.188 527.559 213.112C527.415 214.03 526.912 214.92 526.051 215.781L525.076 216.756C524.215 217.617 523.315 218.123 522.379 218.273C521.454 218.423 520.602 218.107 519.821 217.327ZM520.533 216.615C521.008 217.09 521.557 217.264 522.182 217.14C522.813 217.021 523.496 216.593 524.233 215.856L525.142 214.948C525.879 214.211 526.307 213.533 526.425 212.915C526.55 212.291 526.372 211.738 525.891 211.257C525.41 210.776 524.855 210.595 524.224 210.714C523.606 210.832 522.928 211.26 522.191 211.997L521.283 212.906C520.546 213.643 520.115 214.323 519.99 214.948C519.871 215.578 520.053 216.134 520.533 216.615ZM527.704 223.579L526.982 224.3L523.657 220.975L524.378 220.254L525.708 221.584L530.579 216.713L530.542 216.676L527.994 216.601L528.959 215.636L531.507 215.711L532.303 216.507L526.467 222.343L527.704 223.579ZM530.159 227.683C529.647 227.171 529.301 226.65 529.119 226.119C528.945 225.595 528.913 225.101 529.026 224.639C529.144 224.183 529.369 223.79 529.7 223.459C529.987 223.172 530.303 222.975 530.646 222.869C530.996 222.756 531.33 222.716 531.649 222.747C531.973 222.772 532.245 222.844 532.464 222.962L532.51 222.916C532.379 222.585 532.348 222.204 532.417 221.773C532.492 221.348 532.704 220.961 533.054 220.611C533.372 220.293 533.747 220.074 534.178 219.956C534.615 219.843 535.074 219.859 535.555 220.002C536.042 220.152 536.51 220.452 536.96 220.902C537.416 221.358 537.712 221.829 537.85 222.316C537.999 222.803 538.009 223.262 537.878 223.693C537.759 224.124 537.547 224.492 537.241 224.798C536.891 225.148 536.494 225.357 536.051 225.426C535.608 225.495 535.233 225.463 534.927 225.332L534.88 225.379C534.999 225.598 535.071 225.869 535.096 226.194C535.127 226.513 535.086 226.847 534.974 227.196C534.868 227.54 534.671 227.855 534.384 228.142C534.053 228.473 533.659 228.698 533.204 228.817C532.748 228.935 532.254 228.904 531.724 228.723C531.199 228.548 530.678 228.202 530.159 227.683ZM533.953 223.89C534.39 224.327 534.83 224.549 535.274 224.555C535.723 224.555 536.11 224.392 536.435 224.068C536.754 223.749 536.913 223.365 536.913 222.916C536.919 222.46 536.704 222.013 536.267 221.576C535.829 221.139 535.386 220.92 534.936 220.92C534.493 220.927 534.109 221.092 533.784 221.417C533.46 221.742 533.294 222.126 533.288 222.569C533.294 223.012 533.516 223.453 533.953 223.89ZM530.843 226.981C531.186 227.324 531.533 227.552 531.883 227.665C532.239 227.771 532.57 227.783 532.876 227.702C533.188 227.615 533.456 227.459 533.681 227.234C534.037 226.878 534.209 226.444 534.196 225.932C534.19 225.413 533.937 224.905 533.438 224.405C532.932 223.899 532.42 223.643 531.901 223.637C531.396 223.631 530.962 223.809 530.599 224.171C530.244 224.527 530.069 224.958 530.075 225.463C530.087 225.975 530.343 226.481 530.843 226.981Z" fill="#384B63"/>
</svg>
